<?xml version="1.0" standalone="no"?>
<!DOCTYPE svg PUBLIC "-//W3C//DTD SVG 20010904//EN"
 "http://www.w3.org/TR/2001/REC-SVG-20010904/DTD/svg10.dtd">
<svg version="1.0" xmlns="http://www.w3.org/2000/svg"
 width="2278.000000pt" height="2278.000000pt" viewBox="0 0 2278.000000 2278.000000"
 preserveAspectRatio="xMidYMid meet">
<metadata>
Created by potrace 1.14, written by Peter Selinger 2001-2017
</metadata>
<g transform="translate(0.000000,2278.000000) scale(0.100000,-0.100000)"
fill="#000000" stroke="none">
<path d="M13498 22241 c-4 -11 -239 -270 -299 -330 -69 -68 -136 -129 -214
-196 -38 -33 -72 -63 -75 -66 -41 -46 -519 -393 -795 -576 -253 -169 -768
-491 -930 -583 -17 -10 -123 -71 -235 -137 -231 -135 -622 -359 -720 -411 -36
-19 -86 -48 -113 -63 -26 -16 -49 -29 -51 -29 -4 0 -203 -110 -236 -130 -8 -5
-40 -23 -70 -41 -535 -308 -1229 -935 -1686 -1523 -38 -49 -76 -100 -84 -112
-228 -331 -291 -436 -410 -679 -132 -269 -211 -482 -276 -737 -19 -76 -37
-147 -39 -159 -2 -11 -6 -28 -9 -37 -3 -9 -7 -35 -11 -57 -3 -22 -10 -65 -15
-95 -6 -30 -12 -77 -15 -105 -4 -27 -8 -66 -11 -85 -17 -127 -21 -397 -11
-600 7 -127 9 -151 21 -240 63 -466 220 -862 477 -1206 l81 -109 -27 -80
c-199 -593 -419 -1378 -604 -2165 -41 -174 -103 -434 -167 -700 -25 -102 -65
-270 -91 -375 -91 -380 -164 -674 -214 -865 -28 -107 -61 -235 -74 -285 -48
-187 -156 -567 -271 -955 -20 -69 -41 -130 -46 -137 -5 -6 -24 -15 -41 -18
-49 -10 -267 -82 -407 -135 -552 -209 -1095 -526 -1569 -915 -147 -120 -309
-276 -432 -415 -476 -536 -761 -1198 -825 -1915 -14 -148 -6 -556 11 -585 1
-3 6 -32 10 -64 9 -79 57 -267 92 -361 26 -71 29 -76 53 -70 39 10 45 21 32
62 -11 36 -10 301 1 320 3 5 8 46 11 92 4 47 9 87 11 90 1 3 6 40 10 81 3 41
8 82 10 90 2 8 6 38 10 65 3 28 7 61 10 75 2 14 7 48 10 75 7 59 25 200 30
235 2 14 7 50 10 80 11 85 69 252 139 396 151 308 407 616 716 862 58 46 114
91 125 100 39 32 381 258 430 284 28 14 70 38 95 52 67 38 278 141 351 171 35
15 78 33 94 40 139 61 619 204 634 189 10 -9 -210 -562 -339 -854 -254 -574
-503 -1023 -837 -1510 -38 -55 -216 -294 -256 -343 -330 -405 -660 -672 -947
-765 -206 -68 -437 -61 -627 17 -317 131 -462 396 -574 1051 -39 225 -34 197
-59 335 -60 330 -113 528 -163 602 -36 54 -108 107 -170 125 -23 7 -80 12
-127 13 -80 0 -90 -3 -172 -42 -316 -151 -1031 -748 -1296 -1081 -305 -384
-383 -677 -291 -1092 62 -278 210 -532 454 -776 362 -364 797 -587 1298 -665
190 -30 519 -32 712 -5 691 98 1383 469 2080 1116 108 100 361 357 446 451
523 583 1017 1457 1459 2579 40 102 76 194 81 205 26 61 160 432 230 633 l32
94 211 -7 c281 -10 367 -15 526 -31 114 -11 147 -15 180 -19 19 -3 55 -7 80
-10 71 -9 114 -15 137 -19 12 -3 43 -8 70 -12 26 -5 50 -9 53 -9 3 -1 30 -5
60 -10 30 -5 57 -9 60 -10 3 -1 32 -7 65 -14 84 -18 367 -91 377 -97 5 -3 7
-47 4 -97 -3 -51 -8 -150 -11 -222 -3 -71 -8 -159 -10 -195 -2 -36 -7 -114
-10 -175 -3 -60 -7 -139 -10 -175 -6 -88 -13 -197 -20 -305 -3 -49 -8 -110
-10 -135 -2 -25 -7 -79 -10 -120 -10 -134 -17 -214 -20 -240 -2 -14 -7 -63
-10 -110 -4 -47 -9 -92 -10 -100 -2 -8 -6 -49 -10 -90 -3 -41 -8 -86 -10 -100
-2 -14 -6 -54 -10 -90 -3 -36 -8 -81 -10 -100 -3 -19 -7 -60 -10 -90 -3 -30
-8 -68 -10 -85 -2 -16 -6 -50 -9 -75 -10 -88 -27 -225 -31 -250 -2 -14 -6 -52
-10 -85 -4 -32 -8 -66 -10 -75 -1 -8 -6 -40 -9 -71 -4 -31 -8 -65 -10 -75 -2
-11 -7 -41 -10 -69 -18 -134 -34 -244 -47 -318 -6 -32 -12 -70 -14 -85 -10
-77 -55 -306 -126 -637 -44 -203 -82 -398 -86 -432 -7 -79 20 -140 80 -181
109 -74 201 -87 552 -77 149 4 286 8 305 10 19 1 78 6 130 9 52 4 106 9 120
11 14 2 50 6 80 10 173 21 344 56 470 97 404 131 855 552 1407 1313 12 17 95
140 186 275 448 669 790 1289 1152 2090 24 52 54 120 68 150 46 101 184 414
246 560 34 80 67 154 72 165 5 11 36 83 68 160 l59 140 64 33 c34 18 126 66
203 106 247 129 474 249 670 356 28 15 88 48 135 73 47 25 119 64 160 87 41
23 152 79 245 124 94 46 231 118 305 159 74 41 136 74 136 74 1 -1 -9 -74 -21
-162 -30 -212 -31 -221 -54 -435 -28 -256 -30 -285 -36 -370 -3 -41 -8 -92
-10 -113 -26 -225 -26 -1175 0 -1412 2 -16 6 -70 10 -120 4 -49 8 -103 10
-120 2 -16 9 -73 15 -125 26 -227 53 -397 91 -590 175 -886 519 -1619 951
-2025 323 -304 705 -479 1143 -523 86 -9 488 -8 530 1 11 3 47 8 80 11 101 12
125 16 275 46 641 128 1274 431 2030 970 267 191 729 578 935 785 61 60 149
146 196 190 279 263 325 311 450 474 79 103 64 78 197 323 120 220 224 551
257 813 4 28 9 61 12 75 9 45 11 493 3 570 -32 268 -44 321 -127 554 -36 99
-74 206 -85 236 -46 129 -148 381 -178 441 -72 143 -252 417 -325 495 -5 6
-28 34 -50 62 -66 84 -323 332 -435 421 -58 45 -112 88 -121 95 -8 7 -30 21
-47 32 -18 10 -32 22 -32 26 0 4 -7 8 -15 8 -24 0 -17 13 18 38 40 27 156 143
192 192 67 90 147 268 161 358 3 20 8 40 10 43 21 35 21 419 0 525 -2 12 -7
37 -10 55 -11 63 -17 94 -27 134 -13 52 -58 183 -69 204 -5 9 -21 42 -35 74
-31 72 -484 749 -566 845 -61 74 -205 202 -226 202 -6 0 -13 4 -15 9 -6 15
-175 94 -228 106 -3 1 -23 7 -45 13 -82 23 -258 32 -355 18 -75 -10 -93 -15
-154 -36 -225 -77 -381 -258 -460 -532 l-24 -83 217 -321 216 -322 13 46 c57
207 103 307 183 403 109 131 272 205 466 213 68 3 107 -1 173 -18 148 -39 296
-107 326 -150 8 -11 46 -73 83 -137 65 -108 77 -140 86 -229 3 -19 7 -53 10
-75 3 -22 6 -92 6 -155 0 -307 -111 -551 -332 -732 -72 -59 -215 -145 -287
-172 -140 -53 -223 -67 -402 -65 -433 4 -620 4 -620 -1 0 -6 243 -376 357
-545 l68 -100 105 -1 c102 -1 280 -11 330 -19 14 -2 48 -6 75 -10 197 -24 370
-64 549 -125 257 -89 471 -218 646 -391 83 -82 160 -172 160 -187 0 -6 4 -12
9 -14 12 -4 78 -110 124 -198 87 -168 133 -311 163 -510 3 -19 7 -46 10 -60
10 -59 18 -225 18 -355 0 -127 -12 -332 -19 -345 -1 -3 -6 -32 -10 -65 -3 -32
-8 -62 -10 -65 -2 -3 -6 -21 -9 -40 -5 -31 -30 -150 -41 -190 -13 -51 -88
-265 -112 -317 -17 -38 -57 -95 -102 -145 -83 -92 -500 -511 -571 -572 -197
-172 -422 -343 -583 -442 -178 -111 -190 -115 -357 -143 -54 -9 -342 -8 -410
2 -112 16 -297 61 -355 86 -11 5 -45 19 -75 31 -78 31 -231 113 -304 163 -142
98 -185 134 -336 287 -180 182 -354 417 -456 613 -75 145 -144 386 -160 558
-3 35 -7 75 -10 89 -6 35 -5 345 1 399 29 258 128 463 283 587 137 110 297
149 497 120 128 -18 354 -121 370 -168 4 -10 11 -18 16 -18 5 0 9 -4 9 -10 0
-5 35 -62 78 -127 43 -65 113 -171 155 -235 42 -65 79 -118 82 -118 3 0 3 12
1 28 -3 15 -8 52 -11 82 -15 129 -23 146 -202 418 -336 512 -376 564 -489 643
-116 80 -295 140 -442 148 -13 1 -13 14 2 121 5 35 11 85 22 170 4 37 26 193
70 500 3 19 9 58 14 85 5 28 12 70 15 95 38 286 204 1176 345 1844 349 1659
751 3164 1164 4356 185 537 318 877 523 1345 314 717 392 991 309 1100 -60 79
-164 99 -466 90 -118 -3 -226 -8 -240 -10 -14 -2 -71 -6 -128 -10 -57 -3 -117
-8 -135 -10 -18 -2 -59 -6 -92 -10 -33 -3 -71 -7 -85 -9 -14 -2 -54 -6 -90
-10 -36 -4 -76 -9 -90 -11 -14 -2 -79 -11 -145 -20 -66 -9 -131 -18 -145 -20
-14 -2 -108 -18 -210 -34 -316 -51 -434 -77 -507 -112 -129 -61 -325 -201
-498 -354 -268 -238 -631 -605 -930 -939 -42 -47 -146 -166 -162 -186 -12 -14
-48 -56 -80 -95 -172 -202 -427 -536 -592 -772 -50 -73 -95 -135 -100 -138 -5
-3 -51 6 -103 20 -86 22 -233 52 -300 61 -16 2 -45 6 -66 8 -44 7 -141 16
-232 22 -85 6 -432 6 -490 0 -25 -3 -80 -8 -123 -11 -43 -4 -86 -8 -95 -9 -9
-2 -44 -7 -77 -11 -32 -4 -67 -8 -76 -10 -9 -2 -34 -6 -55 -9 -22 -4 -61 -11
-89 -16 -27 -5 -63 -12 -80 -15 -16 -3 -102 -23 -190 -46 -88 -23 -171 -44
-185 -47 -14 -3 -101 -32 -195 -64 -93 -32 -177 -60 -185 -62 -21 -6 -234 -94
-355 -147 -55 -24 -183 -86 -285 -137 -102 -52 -216 -105 -255 -119 -38 -14
-133 -53 -210 -88 -77 -34 -185 -79 -240 -99 -55 -21 -112 -46 -127 -57 l-28
-19 5 267 c4 284 12 527 20 683 3 52 8 138 10 190 7 132 14 245 20 310 3 30 7
91 10 135 3 44 7 96 10 115 2 19 7 74 10 121 3 47 7 96 9 110 3 13 7 60 11
104 4 44 8 89 10 100 2 11 6 47 10 80 3 33 8 78 10 100 7 63 35 295 40 329 2
17 9 67 15 111 6 44 20 130 30 190 64 363 64 495 0 584 -17 22 -49 51 -72 63
-41 22 -53 23 -258 23 -191 0 -392 -7 -575 -20 -101 -7 -219 -16 -245 -20 -14
-2 -59 -6 -100 -10 -344 -30 -705 -106 -816 -170 -80 -47 -235 -231 -459 -544
-133 -186 -467 -684 -604 -900 -50 -79 -91 -138 -92 -130 0 8 -2 21 -3 29 -31
156 -36 649 -11 915 14 145 24 236 31 275 2 14 7 45 10 70 11 89 63 337 99
469 107 394 278 753 504 1054 369 493 690 818 870 882 40 14 44 13 74 -8 18
-12 34 -25 37 -28 3 -3 32 -24 64 -47 49 -35 150 -122 250 -217 12 -11 75 -65
141 -121 100 -84 155 -127 290 -231 95 -73 436 -303 450 -303 2 0 29 -15 58
-34 50 -32 309 -166 387 -200 142 -61 270 -107 315 -112 22 -2 49 -6 61 -9 12
-3 39 -7 60 -10 21 -3 48 -8 60 -10 28 -6 147 -23 215 -31 30 -3 65 -7 79 -10
136 -22 600 -22 715 0 11 2 49 7 85 11 36 4 67 8 70 10 3 2 26 6 50 10 307 44
741 203 1072 391 185 105 496 324 637 449 120 105 164 146 231 214 283 289
449 532 611 896 22 51 87 246 100 305 6 25 12 52 15 60 14 56 23 101 29 140 3
25 8 52 10 60 2 8 6 42 10 75 3 33 8 80 10 105 21 194 -1 384 -61 517 -8 17
-14 36 -14 43 0 11 -186 390 -197 400 -3 3 -2 -15 2 -40 4 -25 9 -56 11 -70 3
-14 9 -47 14 -75 16 -81 17 -86 30 -170 6 -44 13 -91 15 -105 24 -142 24 -347
0 -500 -56 -364 -271 -726 -560 -944 -184 -138 -403 -229 -655 -270 -176 -29
-645 -29 -910 -1 -79 9 -143 17 -159 20 -9 1 -41 6 -71 10 -30 4 -64 9 -75 11
-11 3 -51 11 -90 19 -38 8 -79 16 -90 19 -11 2 -41 9 -68 15 -139 32 -378 122
-515 193 -259 136 -654 449 -763 605 -30 43 -49 103 -32 103 5 0 20 9 33 19
14 11 95 75 181 143 86 68 173 137 194 153 21 17 43 35 49 40 6 6 63 53 126
105 63 52 124 103 135 113 29 26 50 44 145 127 47 41 146 135 220 210 182 183
261 288 273 370 5 30 0 41 -39 87 -45 52 -59 62 -66 44z m-1173 -3821 c3 -5 1
-10 -4 -10 -6 0 -11 5 -11 10 0 6 2 10 4 10 3 0 8 -4 11 -10z m5197 -2602
c-18 -30 -97 -170 -357 -638 -130 -235 -171 -311 -275 -520 -51 -102 -94 -187
-96 -189 -2 -2 -44 31 -94 73 -51 42 -100 82 -111 89 -10 6 -19 15 -19 19 0
17 245 345 430 577 119 150 374 450 468 551 28 30 51 58 52 63 0 4 5 7 11 7 6
0 2 -15 -9 -32z m-7871 -35 c-30 -58 -232 -701 -303 -967 l-24 -89 -50 59
c-27 32 -59 70 -71 83 -52 58 -51 68 19 208 106 210 214 398 324 566 57 86
106 157 109 157 3 0 2 -8 -4 -17z m4144 -1407 c17 -2 50 -7 75 -11 54 -8 87
-13 120 -20 14 -3 40 -8 59 -11 63 -11 241 -64 333 -100 234 -92 458 -228 639
-389 l37 -33 -70 -128 c-258 -474 -694 -1357 -918 -1859 -13 -27 -59 -129
-102 -225 -309 -679 -837 -1949 -1173 -2820 -267 -693 -415 -1067 -598 -1510
-91 -219 -93 -222 -177 -250 l-41 -13 -57 59 c-31 33 -82 89 -112 124 -30 35
-90 100 -132 144 -68 70 -81 90 -80 116 0 3 3 28 6 55 12 105 25 222 31 280 3
33 7 80 10 105 3 25 9 101 15 170 6 69 12 145 15 170 2 25 7 83 10 130 3 47 8
110 10 140 6 81 14 203 20 305 3 50 7 126 10 170 9 153 14 251 30 685 15 396
18 841 19 2434 l1 1799 155 77 c314 155 379 181 492 195 22 3 81 23 132 44
113 48 217 84 321 110 78 20 100 24 179 36 21 4 48 8 60 11 11 2 55 7 96 10
41 4 77 8 79 10 6 5 469 -4 506 -10z m-5194 -1070 c93 -41 268 -97 349 -112
14 -2 30 -6 36 -8 7 -3 3 -52 -13 -152 -19 -127 -32 -214 -69 -499 -3 -22 -7
-51 -9 -65 -2 -14 -6 -54 -10 -90 -4 -36 -8 -76 -10 -90 -2 -14 -6 -52 -10
-85 -3 -33 -8 -76 -10 -95 -2 -19 -7 -66 -10 -105 -4 -38 -8 -81 -10 -95 -2
-14 -6 -61 -10 -105 -3 -44 -8 -98 -10 -120 -2 -22 -7 -76 -10 -120 -3 -44 -8
-105 -10 -135 -3 -30 -7 -98 -10 -150 -3 -52 -8 -126 -10 -165 -3 -38 -7 -124
-10 -190 -3 -66 -7 -163 -10 -215 -7 -148 -14 -369 -20 -685 -3 -159 -8 -366
-10 -460 -2 -93 -7 -303 -11 -465 -3 -162 -8 -331 -9 -375 -2 -44 -4 -97 -4
-118 l-1 -38 -52 5 c-242 27 -1013 28 -1253 2 -16 -2 -61 -7 -100 -11 -38 -4
-74 -10 -79 -12 -4 -3 -6 3 -2 13 77 248 206 739 577 2197 104 409 147 573
231 877 39 140 77 280 85 310 8 30 37 131 64 224 28 93 61 206 74 250 63 216
177 578 280 894 6 17 15 15 76 -12z m7064 -313 c102 -210 192 -471 231 -668 4
-22 8 -42 9 -45 15 -62 14 -83 -9 -156 -206 -654 -499 -1849 -660 -2684 -2
-14 -14 -70 -24 -125 -11 -55 -37 -190 -57 -300 l-37 -200 -57 -65 c-177 -203
-442 -436 -555 -488 -89 -40 -105 -49 -243 -143 -71 -47 -135 -89 -143 -93 -8
-3 -35 -19 -60 -35 -46 -30 -192 -116 -265 -156 -268 -148 -555 -298 -555
-291 0 3 65 165 144 358 79 194 259 639 399 988 505 1259 987 2398 1263 2989
24 51 44 95 44 96 0 2 27 60 60 130 33 70 60 128 60 130 0 16 403 835 411 835
3 0 23 -35 44 -77z m-3684 -6225 c-5 -13 -37 -84 -71 -158 -34 -74 -73 -162
-88 -195 -48 -108 -278 -567 -349 -695 -39 -69 -102 -178 -142 -242 -70 -114
-99 -151 -88 -112 53 178 230 1046 240 1176 2 29 19 39 227 131 309 136 283
127 271 95z"/>
<path d="M20330 11533 c0 -2 92 -143 205 -313 l205 -310 1020 0 1020 0 -77
118 c-43 64 -136 205 -208 313 l-130 196 -1017 0 c-560 0 -1018 -2 -1018 -4z"/>
<path d="M13652 2083 c26 -4 26 -4 26 -94 0 -89 0 -89 -21 -74 -35 25 -74 18
-113 -18 -30 -27 -37 -41 -38 -74 -1 -50 19 -90 56 -109 35 -18 68 -18 96 2
20 14 22 14 22 0 0 -12 11 -16 48 -15 26 0 40 3 32 6 -8 3 -17 10 -20 14 -3 4
-5 89 -5 188 l1 181 -55 -1 c-31 -1 -44 -4 -29 -6z m5 -185 c30 -34 32 -124 3
-161 -23 -30 -60 -36 -79 -13 -11 13 -16 115 -8 156 8 45 51 54 84 18z"/>
<path d="M13828 2083 c22 -4 22 -6 22 -188 0 -182 0 -184 -22 -188 -13 -2 9
-5 47 -5 39 0 63 2 55 5 -24 9 -29 24 -24 72 11 106 27 141 65 141 27 0 31
-14 31 -103 0 -108 1 -105 -19 -110 -10 -3 11 -5 47 -5 38 0 57 2 46 7 -16 6
-19 19 -20 93 -1 69 -5 90 -20 107 -25 27 -75 28 -104 1 -12 -11 -23 -20 -25
-20 -1 0 -2 45 -1 100 l1 100 -51 -1 c-28 -1 -41 -4 -28 -6z"/>
<path d="M15132 2083 l26 -4 0 -161 c0 -156 0 -161 -23 -184 -27 -27 -57 -31
-74 -10 -15 18 -16 148 -1 175 12 23 40 27 73 9 20 -10 21 -10 8 5 -19 23 -73
21 -105 -4 -69 -54 -67 -150 4 -192 34 -21 57 -21 93 -3 24 13 27 13 27 -2 0
-14 8 -16 48 -13 26 2 40 6 32 9 -8 3 -17 8 -20 13 -3 4 -5 89 -4 188 l0 181
-55 -1 c-31 -1 -44 -4 -29 -6z"/>
<path d="M16952 2083 l28 -4 -1 -161 c-1 -155 -2 -162 -24 -184 -13 -13 -33
-24 -43 -24 -35 0 -43 23 -40 110 3 96 16 113 68 93 27 -10 30 -10 20 3 -7 8
-26 14 -42 14 -84 0 -137 -92 -97 -171 27 -54 79 -72 132 -45 23 13 27 13 27
0 0 -10 12 -14 48 -13 26 1 39 3 30 6 -22 5 -20 -9 -22 203 l-1 175 -55 1
c-30 1 -43 0 -28 -3z"/>
<path d="M17128 2083 c22 -4 22 -6 22 -188 0 -182 0 -184 -22 -188 -13 -2 9
-5 47 -5 42 0 62 2 50 7 -17 7 -19 16 -17 82 3 81 22 121 61 127 28 4 32 -9
34 -113 2 -79 0 -88 -18 -96 -13 -5 2 -8 45 -7 36 0 57 2 48 5 -21 5 -19 -3
-21 99 -2 65 -6 86 -21 103 -25 27 -77 28 -101 1 -10 -11 -21 -16 -24 -11 -4
5 -6 50 -5 100 l1 91 -51 -1 c-28 -1 -41 -4 -28 -6z"/>
<path d="M12758 1923 c21 -4 22 -9 22 -108 0 -99 -1 -104 -22 -108 -13 -2 9
-5 47 -5 47 0 63 2 49 8 -19 7 -20 15 -18 87 3 70 5 80 30 101 49 42 59 29 62
-85 2 -90 1 -102 -15 -106 -10 -3 11 -5 47 -4 36 0 56 2 44 4 -18 4 -20 10
-17 74 3 77 22 124 54 134 33 11 41 -7 43 -100 1 -91 0 -99 -24 -108 -8 -3 17
-5 55 -5 39 0 60 3 48 5 -24 5 -25 10 -24 88 1 83 -8 112 -40 125 -35 15 -72
7 -99 -22 -12 -14 -20 -17 -20 -8 0 19 -31 39 -60 40 -14 0 -39 -9 -57 -19
-31 -20 -32 -20 -28 0 3 17 -2 19 -48 18 -29 -1 -42 -4 -29 -6z"/>
<path d="M13273 1920 c-32 -13 -46 -45 -28 -60 22 -18 40 -7 40 26 0 25 4 30
29 32 16 2 32 -2 37 -10 13 -20 11 -78 -3 -79 -44 -3 -76 -12 -98 -28 -73 -52
10 -135 85 -85 22 15 26 15 40 0 23 -22 49 -20 71 6 16 19 16 20 1 9 -9 -8
-20 -11 -23 -8 -3 3 -7 44 -8 91 -1 50 -6 90 -13 97 -15 15 -102 22 -130 9z
m87 -132 c0 -17 -7 -40 -17 -50 -35 -39 -80 -9 -61 41 11 30 19 36 52 39 23 2
26 -2 26 -30z"/>
<path d="M14140 1921 c24 -7 25 -10 25 -86 1 -44 4 -90 8 -101 13 -37 81 -46
115 -14 20 19 40 12 27 -10 -4 -6 14 -9 47 -9 29 1 43 4 31 6 -22 4 -23 8 -23
114 l0 109 -52 -1 c-37 -1 -45 -3 -28 -8 25 -6 26 -9 24 -79 -1 -84 -24 -127
-65 -127 -24 0 -24 2 -27 108 l-3 107 -52 -1 c-38 -1 -45 -3 -27 -8z"/>
<path d="M14500 1923 c-66 -26 -44 -116 30 -128 55 -9 68 -15 75 -33 8 -21
-28 -52 -60 -52 -25 0 -75 45 -75 68 0 33 -14 -1 -15 -36 l-1 -37 56 1 c88 1
90 2 106 41 15 34 14 38 -4 62 -10 14 -31 29 -46 34 -14 4 -38 10 -53 15 -60
17 -23 70 39 57 18 -4 32 -15 35 -26 8 -29 19 -23 19 11 0 17 -3 30 -8 30 -4
0 -8 -5 -8 -10 0 -7 -6 -7 -19 0 -21 11 -47 12 -71 3z"/>
<path d="M14670 1921 c23 -6 24 -10 25 -95 0 -80 2 -89 24 -107 28 -23 68 -24
95 -4 24 18 37 19 34 3 -2 -9 13 -13 47 -14 28 -1 40 0 27 3 -19 4 -23 10 -22
36 1 18 2 67 1 110 l-1 77 -52 -1 c-37 -1 -45 -3 -28 -8 24 -6 26 -9 24 -71
-1 -36 -4 -73 -6 -82 -7 -28 -41 -59 -62 -56 -20 3 -21 11 -24 111 l-3 107
-52 -1 c-37 -1 -45 -3 -27 -8z"/>
<path d="M15360 1923 c-34 -13 -50 -35 -39 -55 16 -29 44 -18 44 17 0 28 3 30
35 30 34 0 35 -1 38 -42 2 -30 -1 -43 -10 -44 -74 -4 -121 -31 -126 -72 -6
-51 68 -74 116 -36 l26 20 8 -20 c9 -25 50 -28 72 -5 20 20 21 30 1 14 -9 -7
-18 -11 -20 -8 -3 3 -7 45 -9 93 -3 71 -7 91 -22 102 -18 13 -85 16 -114 6z
m80 -135 c0 -54 -56 -91 -78 -52 -20 36 8 78 54 82 21 2 24 -2 24 -30z"/>
<path d="M15591 1923 c26 -4 26 -4 27 -108 1 -99 0 -104 -21 -108 -12 -2 10
-4 48 -4 39 0 60 2 49 4 -20 4 -21 10 -20 111 l1 107 -55 1 c-30 1 -43 0 -29
-3z"/>
<path d="M15708 1912 c-16 -9 -28 -20 -28 -25 0 -4 13 2 29 14 50 36 58 23 60
-89 2 -97 1 -101 -21 -105 -13 -2 11 -4 52 -4 41 -1 64 2 50 6 -24 6 -25 9
-25 76 1 39 -3 82 -8 98 -16 47 -61 60 -109 29z"/>
<path d="M15900 1921 c23 -6 25 -10 25 -86 1 -105 8 -123 50 -131 26 -5 44 -1
71 15 36 22 37 22 31 1 -5 -18 -1 -20 46 -19 29 1 42 4 30 6 -22 4 -23 8 -23
114 l0 109 -52 -1 c-38 -1 -46 -3 -28 -8 22 -6 25 -12 25 -62 1 -76 -11 -116
-40 -135 -47 -31 -55 -15 -55 101 l0 105 -52 -1 c-38 -1 -46 -3 -28 -8z"/>
<path d="M16211 1923 l26 -4 0 -179 c0 -174 -1 -179 -21 -183 -12 -2 13 -4 54
-4 41 0 63 2 49 4 -25 4 -26 6 -27 87 l0 84 26 -14 c33 -17 50 -17 85 -1 27
12 67 78 67 111 0 45 -45 95 -94 103 -30 5 -42 1 -63 -18 l-26 -24 6 23 c5 21
3 22 -51 21 -32 -1 -45 -4 -31 -6z m178 -12 c18 -12 19 -165 1 -186 -18 -22
-48 -18 -76 10 -21 21 -24 32 -21 77 4 55 18 93 39 101 20 8 42 7 57 -2z"/>
<path d="M16593 1923 c-31 -6 -56 -42 -41 -60 23 -29 43 -14 39 29 -2 19 38
34 64 24 23 -8 21 -86 -2 -87 -99 -4 -160 -75 -99 -114 30 -20 94 -13 103 11
5 13 9 12 25 -5 22 -25 51 -27 72 -5 20 20 21 30 1 14 -9 -7 -17 -11 -20 -9
-2 3 -5 42 -6 88 -2 115 -26 135 -136 114z m77 -136 c0 -41 -29 -72 -58 -63
-37 12 -34 72 4 87 41 16 54 11 54 -24z"/>
<path d="M17425 1923 c21 -4 32 -22 98 -161 l35 -72 -25 -53 c-31 -65 -30 -64
-47 -42 -16 23 -46 14 -46 -14 0 -25 15 -34 44 -27 27 7 70 88 152 293 20 51
35 73 49 76 11 2 -2 4 -30 4 -27 0 -40 -2 -27 -4 12 -2 22 -6 22 -8 0 -4 -61
-149 -65 -153 -2 -2 -75 145 -75 152 0 3 10 7 23 9 12 2 -12 4 -53 4 -41 0
-66 -2 -55 -4z"/>
<path d="M17793 1923 c-13 -2 -30 -14 -38 -26 -13 -18 -13 -23 -1 -36 22 -21
48 -7 40 23 -5 21 -2 26 20 32 42 10 56 -1 56 -45 0 -29 -5 -41 -17 -44 -17
-4 -17 -5 0 -6 24 -1 23 -62 -2 -85 -23 -21 -57 -14 -63 12 -7 26 9 62 27 62
8 0 15 4 15 9 0 14 -59 -5 -81 -25 -26 -23 -24 -59 3 -78 28 -20 51 -20 89 -1
27 14 31 14 45 0 20 -19 48 -19 68 1 20 20 21 30 1 14 -9 -7 -17 -11 -20 -9
-2 3 -5 41 -6 87 -2 101 -13 118 -71 119 -24 0 -53 -1 -65 -4z"/>
<path d="M17995 1923 c15 -3 35 -33 68 -101 27 -53 52 -104 56 -112 5 -9 -1
-35 -16 -70 -30 -67 -32 -69 -48 -46 -15 20 -45 16 -45 -6 0 -27 18 -41 43
-34 29 7 45 34 116 206 65 156 63 153 92 161 15 4 1 7 -36 7 -33 -1 -47 -3
-32 -5 17 -3 27 -9 24 -16 -41 -102 -60 -147 -62 -145 -6 5 -75 146 -75 151 0
3 10 8 23 10 12 2 -12 4 -53 4 -41 0 -66 -2 -55 -4z"/>
<path d="M18423 1894 c-18 -17 -34 -36 -34 -43 -1 -6 -2 -21 -3 -33 -5 -56 60
-123 111 -115 l28 4 -27 2 c-38 2 -51 31 -51 114 0 78 15 101 63 95 22 -3 25
-7 22 -36 -2 -22 2 -34 12 -38 23 -9 45 13 39 37 -15 57 -105 64 -160 13z"/>
<path d="M18705 1921 c-52 -22 -82 -95 -60 -148 45 -108 198 -90 221 25 17 86
-76 157 -161 123z m88 -21 c9 -13 13 -44 12 -91 -1 -57 -5 -75 -20 -85 -22
-16 -40 -18 -64 -4 -26 13 -30 160 -6 184 22 22 61 20 78 -4z"/>
<path d="M18938 1923 c22 -4 24 -11 24 -98 0 -106 -2 -114 -24 -118 -13 -2 11
-4 52 -5 45 0 65 3 50 7 -23 6 -25 11 -24 68 2 83 10 110 39 129 46 30 55 15
55 -95 0 -86 -2 -100 -17 -104 -10 -3 11 -5 47 -5 36 0 58 2 50 5 -24 9 -27
20 -23 84 4 70 23 115 54 124 34 11 41 -7 42 -106 1 -83 -1 -93 -19 -100 -11
-5 9 -7 51 -7 39 0 60 3 48 5 -13 2 -23 10 -24 16 -1 7 -2 41 -3 77 -4 104 -5
106 -31 118 -40 18 -67 14 -97 -15 -15 -15 -28 -22 -28 -16 0 22 -32 43 -64
43 -22 0 -42 -9 -59 -26 l-26 -26 5 26 c4 25 3 26 -48 25 -29 -1 -43 -4 -30
-6z"/>
<path d="M19566 1923 c20 -4 21 -11 22 -108 l1 -104 -27 -4 c-15 -2 7 -4 48
-5 52 0 68 2 53 8 -20 8 -21 14 -19 114 l3 106 -51 -1 c-28 -1 -42 -4 -30 -6z"/>
<path d="M19673 1904 l-28 -26 29 21 c57 42 66 28 65 -99 -1 -83 -2 -89 -22
-93 -12 -2 12 -4 53 -4 41 -1 64 2 50 6 -24 6 -25 9 -27 96 -1 79 -4 92 -23
107 -31 25 -64 22 -97 -8z"/>
<path d="M19886 1923 c21 -4 22 -9 23 -183 1 -177 1 -179 -22 -183 -12 -2 12
-4 53 -4 41 0 63 2 49 4 l-27 4 2 152 c2 158 10 190 48 203 26 8 58 -5 59 -24
5 -66 -1 -155 -11 -167 -16 -20 -49 -19 -72 2 -10 9 -18 11 -18 5 0 -15 33
-32 64 -32 33 0 92 52 99 89 20 99 -75 177 -147 120 -15 -12 -26 -17 -25 -12
5 27 -3 33 -48 32 -27 -1 -38 -4 -27 -6z"/>
<path d="M18581 1774 c-1 -6 -13 -23 -28 -38 -14 -14 -24 -28 -21 -31 9 -9 60
53 55 67 -3 7 -6 8 -6 2z"/>
<path d="M18251 1756 c-15 -18 -4 -44 21 -52 27 -8 42 9 34 40 -7 29 -36 35
-55 12z"/>
<path d="M19421 1756 c-9 -11 -10 -20 -1 -36 16 -29 54 -23 58 9 6 37 -34 55
-57 27z"/>
<path d="M17716 1512 c-3 -2 -18 -6 -33 -7 -29 -4 -59 -10 -96 -20 -33 -9
-132 -58 -135 -67 -2 -4 -9 -8 -15 -8 -7 0 -25 -11 -41 -23 -24 -19 -28 -28
-22 -50 8 -34 24 -35 36 -2 32 85 187 145 359 141 97 -3 136 -17 149 -55 27
-78 -29 -149 -143 -183 -62 -18 -155 -23 -155 -9 0 14 51 105 62 109 12 5 10
30 -7 62 -19 38 -43 38 -51 3 -8 -34 -92 -201 -105 -208 -5 -4 -9 -13 -9 -21
0 -8 -10 -34 -21 -57 -12 -23 -30 -59 -40 -79 -22 -44 -23 -66 -4 -91 16 -22
54 -15 51 10 -3 19 37 117 73 180 l24 41 66 -1 c73 -1 155 9 180 23 9 4 19 8
24 9 27 2 82 40 103 70 44 68 44 143 -1 195 -14 16 -25 26 -25 21 0 -4 -7 -1
-16 6 -16 13 -197 23 -208 11z"/>
<path d="M15509 1449 c-24 -28 -48 -60 -54 -72 -5 -12 -19 -33 -31 -46 -25
-27 -98 -161 -88 -161 3 0 -1 -11 -10 -25 -26 -39 -29 -134 -7 -172 16 -25 25
-30 54 -29 19 0 44 9 54 19 11 9 25 17 31 17 7 0 12 3 12 8 1 4 18 26 40 50
l39 43 -10 -37 c-13 -46 1 -85 39 -105 35 -19 48 -18 105 10 78 38 125 140 87
186 -6 8 -9 19 -5 25 7 11 -60 44 -74 36 -4 -3 -20 -7 -36 -10 -40 -7 -100
-50 -178 -127 -89 -89 -129 -101 -122 -36 1 12 3 29 4 38 0 9 9 19 20 22 18 4
101 107 101 126 0 5 4 11 8 13 12 5 73 113 104 185 25 58 26 62 9 77 -28 26
-45 19 -92 -35z m61 -23 c0 -8 -37 -82 -55 -112 -37 -57 -139 -177 -127 -149
31 73 37 85 44 85 4 0 8 5 8 11 0 14 112 168 123 169 4 0 7 -2 7 -4z m150
-301 c-10 -12 -10 -18 0 -30 17 -21 3 -54 -41 -98 -47 -46 -82 -48 -87 -4 -4
37 38 109 75 126 15 7 35 17 43 21 21 11 25 4 10 -15z"/>
<path d="M16849 1489 c-48 -12 -95 -42 -141 -90 -59 -61 -70 -95 -39 -120 l23
-18 -59 -28 c-32 -16 -64 -33 -70 -40 -7 -6 -23 -20 -36 -30 -65 -53 -84 -116
-50 -173 16 -27 45 -40 103 -45 45 -4 100 18 146 58 24 21 44 35 44 30 0 -5 9
-19 20 -31 16 -17 27 -20 53 -15 68 13 167 92 167 133 0 25 -12 25 -35 0 -25
-27 -105 -77 -136 -85 -16 -4 -30 -2 -34 5 -7 11 10 64 27 85 5 6 22 30 38 55
67 103 72 106 193 109 32 1 47 5 47 14 0 23 -33 45 -60 41 -70 -10 -80 -11
-80 -3 0 5 5 9 11 9 13 0 7 52 -7 57 -6 2 -22 -13 -36 -34 -19 -29 -37 -42
-74 -53 -63 -20 -129 -20 -129 -1 0 38 115 141 157 141 22 0 23 -13 3 -30 -19
-16 -19 -36 -1 -43 15 -6 40 17 48 43 3 8 -1 27 -9 42 -14 28 -31 32 -84 17z
m4 -237 c-7 -4 -23 -28 -36 -53 -13 -25 -30 -56 -38 -69 -51 -90 -155 -146
-223 -120 -22 8 -23 12 -16 44 11 52 45 90 135 152 36 24 60 34 100 41 17 3
32 7 34 9 2 2 16 4 30 4 16 0 21 -3 14 -8z"/>
<path d="M19540 1439 c-27 -33 -50 -67 -50 -75 0 -7 -4 -14 -9 -14 -12 0 -71
-96 -64 -104 4 -3 2 -6 -4 -6 -5 0 -23 -30 -38 -67 -35 -80 -41 -182 -13 -209
21 -21 64 -27 92 -12 33 18 126 110 126 124 0 8 7 14 15 14 8 0 15 5 15 12 0
6 3 8 7 5 3 -4 12 -2 20 5 23 18 26 1 9 -42 -20 -50 -21 -104 -1 -120 23 -19
73 3 133 58 28 27 52 47 52 44 0 -2 12 3 26 13 26 16 26 16 18 -7 -19 -58 -8
-96 34 -120 15 -9 37 -14 50 -12 42 7 110 54 132 92 24 39 29 97 11 115 -6 6
-11 19 -11 28 0 17 -52 45 -68 35 -4 -3 -20 -7 -35 -10 -15 -2 -52 -22 -82
-43 -31 -21 -64 -42 -73 -48 -10 -5 -33 -21 -52 -35 -33 -24 -78 -50 -86 -50
-9 0 -3 37 9 60 24 45 28 88 11 105 -9 8 -19 15 -24 15 -19 0 -108 -68 -173
-132 -97 -95 -126 -100 -122 -20 1 27 6 37 18 37 16 0 85 87 123 155 10 19 24
42 31 50 24 31 83 160 83 184 0 23 -16 36 -45 36 -8 0 -37 -27 -65 -61z m70
-14 c0 -19 -80 -156 -106 -180 -5 -5 -23 -27 -38 -48 -15 -21 -30 -36 -32 -34
-7 7 29 87 38 87 5 0 8 5 8 10 0 10 33 61 55 85 6 6 21 28 35 48 22 32 40 47
40 32z m440 -295 c-12 -7 -12 -13 -1 -32 8 -17 9 -31 3 -49 -14 -35 -78 -89
-105 -89 -54 0 -13 130 50 159 15 7 35 17 43 21 20 10 29 1 10 -10z"/>
<path d="M14926 1481 c-3 -4 -18 -8 -34 -9 -17 -1 -49 -9 -72 -17 -23 -8 -51
-15 -62 -15 -26 0 -69 -45 -62 -64 8 -21 19 -20 41 2 20 21 63 39 108 46 17 3
47 8 68 11 l38 6 -26 -40 c-14 -23 -23 -41 -20 -41 3 0 -19 -49 -49 -108 -53
-105 -54 -109 -38 -135 9 -15 20 -27 23 -27 11 0 28 25 32 46 7 39 58 138 65
127 4 -7 39 -13 82 -14 117 -4 190 -32 190 -74 0 -54 -242 -175 -351 -175 -59
0 -51 18 26 57 88 46 122 57 168 58 42 0 49 3 54 24 7 28 -13 44 -39 30 -10
-5 -18 -7 -18 -4 0 12 -257 -127 -289 -156 -32 -28 -32 -31 -16 -49 14 -15 28
-18 86 -15 38 3 78 9 89 15 11 6 20 9 20 6 0 -8 164 55 199 77 96 58 126 110
97 165 -19 36 -48 56 -116 78 l-53 17 44 20 c57 27 101 72 97 99 -2 12 -16 30
-31 42 -25 18 -44 21 -138 22 -60 1 -111 -1 -113 -5z m201 -42 c18 -6 33 -14
33 -19 0 -16 -64 -58 -129 -84 -36 -14 -73 -34 -83 -43 -15 -13 -13 -6 8 42
15 32 27 70 26 84 0 25 2 27 56 29 30 1 71 -3 89 -9z"/>
<path d="M18992 1478 c-13 -16 -82 -173 -82 -186 0 -34 -48 -110 -104 -168
-63 -63 -80 -94 -54 -94 7 0 25 12 41 28 l29 27 -16 -40 c-9 -22 -25 -47 -36
-57 -11 -9 -15 -18 -10 -20 7 -2 1 -26 -14 -61 -21 -47 -72 -185 -92 -247 -6
-19 12 -70 25 -70 12 0 171 151 171 163 0 5 8 21 18 35 45 65 46 118 3 161
-19 19 -19 20 52 68 102 70 96 68 86 25 -11 -47 3 -83 40 -105 70 -41 203 58
203 151 0 19 -5 39 -11 45 -6 6 -11 19 -11 28 0 26 -51 40 -97 27 -36 -9 -184
-101 -227 -140 -19 -17 -46 -24 -46 -12 0 11 91 194 103 206 18 20 45 70 49
93 1 11 6 22 10 25 12 9 16 83 7 107 -10 26 -22 29 -37 11z m198 -349 c-8 -14
-8 -24 -1 -33 18 -22 3 -60 -39 -99 -49 -46 -83 -48 -88 -4 -4 33 42 117 63
117 8 0 15 5 15 10 0 6 9 10 19 10 11 0 23 5 26 10 12 19 16 10 5 -11z m-346
-205 c25 -24 19 -55 -25 -140 -35 -69 -85 -131 -96 -120 -4 4 42 137 65 186
18 39 19 42 21 70 1 24 14 26 35 4z"/>
<path d="M18779 1438 c-9 -7 -26 -27 -37 -44 -19 -28 -33 -34 -114 -54 -175
-42 -207 -52 -213 -71 -4 -10 -2 -26 3 -35 8 -14 11 -14 23 -2 13 14 41 23 94
32 11 1 30 6 42 10 12 4 31 9 43 11 12 2 30 7 41 10 27 9 24 -11 -8 -54 -50
-67 -208 -218 -250 -240 -38 -19 -73 -27 -73 -17 0 10 28 56 56 91 l32 40 -18
45 c-10 25 -25 46 -33 48 -9 2 -44 -19 -79 -46 -35 -27 -73 -54 -86 -61 -18
-10 -33 -51 -18 -51 7 0 80 43 86 51 6 8 66 39 75 39 4 0 -9 -28 -27 -62 -19
-35 -34 -73 -33 -86 3 -30 33 -62 59 -62 31 0 118 59 195 132 36 35 74 69 84
77 16 13 17 12 8 -11 -10 -28 -9 -106 3 -150 8 -27 30 -43 47 -32 14 8 11 57
-4 79 -8 11 -13 36 -11 55 3 40 25 123 34 130 5 5 84 103 85 107 0 1 13 4 29
7 16 3 31 7 34 10 2 3 13 1 22 -4 15 -8 24 -3 44 21 35 41 33 53 -6 45 -95
-20 -95 -20 -95 9 0 35 -15 49 -34 33z"/>
<path d="M19743 1344 c-7 -18 6 -45 25 -52 18 -6 36 37 21 54 -15 19 -38 18
-46 -2z"/>
<path d="M18039 1196 c-2 -3 -17 -7 -32 -10 -31 -5 -121 -62 -149 -93 -10 -11
-14 -24 -9 -31 6 -10 11 -10 21 3 13 16 35 21 25 5 -3 -5 -7 -27 -10 -49 -3
-36 0 -44 31 -71 40 -34 61 -33 131 7 69 40 109 129 77 170 -7 10 -14 25 -14
34 0 20 -57 48 -71 35z m31 -67 c-8 -15 -8 -24 0 -34 18 -21 1 -62 -42 -100
-47 -43 -81 -44 -86 -3 -6 48 59 138 100 138 9 0 20 5 23 10 12 19 16 10 5
-11z"/>
<path d="M16015 1166 c-71 -20 -117 -49 -179 -110 -42 -41 -56 -61 -46 -63 9
-2 20 -14 25 -26 6 -12 18 -23 27 -25 17 -3 130 63 136 79 2 5 8 9 13 9 5 0
18 9 29 20 42 42 41 9 -2 -77 -9 -19 -59 -40 -80 -35 -5 1 -8 -3 -8 -8 0 -6
-7 -10 -15 -10 -44 0 -155 -147 -155 -205 0 -35 22 -57 47 -48 37 14 133 105
180 170 39 54 48 62 69 57 27 -7 45 19 25 39 -17 17 -14 38 19 118 35 85 36
115 2 112 -12 -2 -22 2 -22 7 0 12 -12 11 -65 -4z m25 -54 c0 -26 -172 -144
-187 -129 -8 8 69 77 120 106 55 32 67 36 67 23z m-70 -217 c0 -9 -43 -68 -75
-103 -33 -37 -93 -77 -102 -69 -10 11 19 78 45 105 41 41 132 87 132 67z"/>
</g>
</svg>
