<?xml version="1.0" standalone="no"?>
<!DOCTYPE svg PUBLIC "-//W3C//DTD SVG 20010904//EN"
 "http://www.w3.org/TR/2001/REC-SVG-20010904/DTD/svg10.dtd">
<svg version="1.0" xmlns="http://www.w3.org/2000/svg"
 width="720.000000pt" height="720.000000pt" viewBox="0 0 720.000000 720.000000"
 preserveAspectRatio="xMidYMid meet">
<metadata>
Created by potrace 1.14, written by Peter Selinger 2001-2017
</metadata>
<g transform="translate(0.000000,720.000000) scale(0.100000,-0.100000)"
fill="#000000" stroke="none">
<path d="M5908 5594 c-2 -1 -61 -5 -133 -8 -217 -11 -391 -22 -510 -31 -27 -2
-99 -7 -160 -10 -60 -3 -126 -8 -145 -10 -30 -3 -156 -12 -285 -20 -50 -3
-189 -15 -235 -20 -19 -2 -71 -6 -115 -10 -44 -3 -105 -8 -135 -12 -84 -9
-108 -11 -200 -18 -47 -4 -92 -9 -101 -10 -9 -2 -52 -6 -95 -10 -43 -4 -86 -9
-94 -10 -8 -2 -49 -6 -90 -10 -41 -4 -82 -8 -90 -10 -8 -2 -44 -6 -80 -10 -36
-3 -76 -8 -90 -10 -31 -5 -183 -25 -230 -30 -37 -4 -230 -32 -265 -39 -11 -2
-41 -6 -66 -10 -57 -8 -63 -9 -234 -40 -200 -36 -194 -35 -405 -81 -100 -22
-295 -77 -415 -117 -108 -36 -170 -51 -220 -54 -38 -2 -83 -6 -100 -8 -16 -3
-47 -8 -69 -12 -47 -7 -176 -40 -182 -47 -7 -6 -11 -40 -19 -132 -3 -44 -8
-93 -10 -110 -2 -16 -7 -59 -10 -95 -3 -36 -7 -75 -9 -86 -2 -11 -7 -47 -10
-80 -3 -32 -8 -70 -11 -84 -3 -14 -7 -45 -9 -70 -4 -38 -16 -124 -52 -355 -2
-16 -6 -41 -9 -55 -3 -14 -7 -41 -10 -60 -17 -105 -71 -355 -109 -509 -68
-270 -146 -498 -228 -667 l-32 -65 -315 5 -316 5 140 -29 c134 -27 225 -44
290 -55 17 -3 39 -6 50 -9 11 -2 37 -6 58 -10 l38 -7 -47 -67 c-87 -124 -205
-229 -302 -267 -23 -10 -42 -19 -42 -22 0 -11 101 -131 146 -173 109 -101 188
-148 309 -181 66 -18 97 -21 181 -16 88 4 110 9 178 40 109 51 201 145 280
287 31 56 106 243 106 263 0 18 6 19 76 12 42 -4 85 -8 94 -10 9 -2 53 -6 96
-10 43 -4 89 -8 101 -10 12 -2 61 -7 110 -11 48 -4 97 -8 108 -10 11 -1 39 -3
61 -3 l41 -1 12 -62 c70 -357 211 -490 521 -491 110 0 175 6 248 22 2 1 -7 14
-21 31 -42 50 -52 94 -50 230 1 103 5 175 12 221 1 4 25 5 54 2 28 -2 166 -5
306 -6 l254 -2 4 -40 c17 -167 97 -309 216 -378 91 -53 245 -84 412 -81 100 1
232 14 261 24 14 6 26 4 35 -4 23 -21 198 -91 284 -114 83 -22 115 -28 200
-38 28 -3 61 -8 75 -10 138 -24 613 -23 745 1 111 20 151 30 243 61 445 148
683 459 685 894 1 125 -8 185 -43 301 -60 195 -194 382 -354 493 -87 60 -232
116 -305 116 -44 0 -36 8 15 15 200 30 351 132 429 290 50 100 65 185 61 335
-7 251 -73 358 -290 470 l-77 40 528 0 528 0 0 154 c0 85 -3 157 -6 161 -7 6
-247 10 -1259 20 -1985 19 -2064 20 -2076 28 -29 18 -257 28 -354 16 -123 -16
-236 -41 -251 -56 -36 -36 -309 -856 -309 -929 0 -24 -288 163 -392 255 -46
41 -50 50 -63 146 -11 82 -68 226 -119 297 -17 25 -18 29 -3 50 156 229 626
400 1572 573 17 3 102 17 190 31 169 26 183 28 255 39 25 4 57 8 71 11 14 2
43 6 65 9 58 7 125 16 164 21 19 3 53 7 75 9 22 3 63 8 90 11 68 9 100 13 295
33 58 7 121 14 140 16 19 2 62 6 95 10 33 3 80 8 105 10 111 11 139 14 205 20
39 3 88 8 110 10 22 2 83 7 135 11 112 8 118 8 125 15 5 5 -22 8 -27 3z
m-2488 -1438 l0 -465 -135 67 c-128 63 -134 67 -128 91 14 61 254 771 260 771
2 0 3 -209 3 -464z m1111 432 c0 -18 0 -54 -1 -80 -2 -64 4 -71 42 -52 35 18
133 54 163 59 113 21 155 26 213 24 126 -4 235 -40 353 -115 107 -68 151 -142
151 -251 -1 -206 -147 -369 -384 -429 -109 -28 -286 -23 -371 11 -16 7 -17 -7
-15 -241 3 -242 4 -249 23 -247 11 1 45 4 75 8 513 55 770 -143 772 -594 1
-112 -20 -208 -64 -296 -125 -250 -344 -370 -594 -324 -65 12 -199 72 -254
113 -53 41 -150 138 -145 146 2 4 26 10 52 13 53 7 234 35 273 42 14 3 64 12
112 20 130 23 269 60 318 85 192 98 98 261 -274 475 -177 101 -730 370 -745
361 -3 -2 -6 251 -6 562 1 538 -5 666 -30 725 -7 16 5 17 164 17 l171 0 1 -32z
m-2746 -584 c19 -11 29 -52 60 -249 3 -22 8 -52 11 -67 2 -15 34 -204 70 -420
35 -216 67 -404 69 -418 2 -14 11 -65 19 -115 25 -148 25 -156 13 -161 -7 -2
-135 -5 -285 -7 -306 -2 -285 -8 -262 73 12 45 56 289 65 359 4 30 8 63 11 74
4 25 33 247 39 302 2 22 7 74 10 115 4 41 9 82 10 90 2 8 6 51 10 95 3 44 8
100 11 125 2 25 6 79 10 120 3 41 8 86 9 100 2 14 4 33 4 42 1 15 9 13 54 -15
29 -17 61 -37 72 -43z m818 -430 c50 -26 93 -47 94 -48 1 -1 -11 -65 -27 -142
-16 -77 -31 -153 -34 -169 -38 -204 -30 -215 -86 120 -22 132 -43 250 -45 263
-3 12 -3 22 0 22 3 0 47 -21 98 -46z m562 -302 c60 -36 143 -90 183 -119 l72
-53 0 -173 0 -174 -77 -26 c-100 -33 -189 -52 -333 -72 -63 -9 -123 -18 -132
-20 -14 -2 -17 2 -13 18 2 12 18 94 35 182 28 143 102 469 115 504 7 18 19 12
150 -67z m1149 -1491 c-2 -3 -12 3 -22 13 -16 17 -16 18 5 5 12 -7 20 -15 17
-18z"/>
<path d="M5958 5593 c6 -2 18 -2 25 0 6 3 1 5 -13 5 -14 0 -19 -2 -12 -5z"/>
<path d="M7132 2383 c-26 -68 -42 -129 -42 -155 0 -38 17 -27 18 11 1 38 33
111 57 131 17 14 18 13 11 -15 -4 -16 -14 -36 -23 -42 -16 -12 -16 -13 0 -13
20 0 49 53 41 74 -8 20 -18 20 -38 0 -21 -21 -21 -6 1 18 14 16 14 18 1 18 -9
0 -20 -12 -26 -27z"/>
<path d="M6690 2380 c-8 -5 -11 -10 -5 -10 5 0 4 -5 -3 -12 -7 -7 -12 -22 -12
-35 0 -28 31 -32 51 -6 13 15 12 15 -8 5 -12 -7 -24 -12 -27 -12 -10 0 4 44
19 59 13 14 15 13 15 -4 0 -16 2 -17 9 -5 18 27 -8 40 -39 20z"/>
<path d="M6750 2360 c-13 -32 -8 -60 12 -60 25 0 39 17 45 53 5 34 4 37 -19
37 -19 0 -29 -8 -38 -30z m45 -1 c-5 -27 -25 -50 -36 -44 -14 9 13 65 32 65 4
0 6 -9 4 -21z"/>
<path d="M6825 2380 c-3 -5 -2 -10 4 -10 7 0 6 -10 -1 -31 -13 -38 -5 -47 15
-16 9 14 13 34 10 46 -6 22 -18 27 -28 11z"/>
<path d="M6873 2383 c-7 -2 -13 -9 -13 -15 0 -7 5 -6 14 1 12 10 13 6 6 -26
-5 -20 -8 -39 -6 -40 2 -2 16 15 31 37 15 22 30 40 32 40 5 0 -1 -32 -13 -72
-8 -27 13 -22 22 5 11 33 12 55 2 69 -6 10 -13 7 -28 -11 -20 -23 -20 -23 -20
-2 0 21 -5 24 -27 14z"/>
<path d="M7024 2373 c0 -10 -3 -30 -7 -45 -5 -17 -3 -28 3 -28 5 0 10 5 10 12
0 6 8 20 18 31 12 15 14 21 4 24 -6 3 -10 9 -6 14 3 5 -1 9 -8 9 -8 0 -14 -8
-14 -17z"/>
<path d="M7066 2381 c-4 -5 -1 -11 6 -13 8 -3 9 -12 0 -36 -6 -18 -7 -32 -3
-32 10 0 28 41 25 58 -1 6 -2 17 -3 22 -1 13 -18 13 -25 1z"/>
<path d="M6626 2321 c-4 -7 -5 -15 -2 -18 9 -9 19 4 14 18 -4 11 -6 11 -12 0z"/>
<path d="M6967 2323 c-10 -9 -9 -23 2 -23 5 0 11 7 15 15 5 15 -5 20 -17 8z"/>
</g>
</svg>
