<?xml version="1.0" standalone="no"?>
<!DOCTYPE svg PUBLIC "-//W3C//DTD SVG 20010904//EN"
 "http://www.w3.org/TR/2001/REC-SVG-20010904/DTD/svg10.dtd">
<svg version="1.0" xmlns="http://www.w3.org/2000/svg"
 width="2161.000000pt" height="2161.000000pt" viewBox="0 0 2161.000000 2161.000000"
 preserveAspectRatio="xMidYMid meet">
<metadata>
Created by potrace 1.14, written by Peter Selinger 2001-2017
</metadata>
<g transform="translate(0.000000,2161.000000) scale(0.100000,-0.100000)"
fill="#000000" stroke="none">
<path d="M10678 19405 c-2 -2 -55 -6 -118 -10 -167 -9 -234 -15 -380 -32 -30
-3 -71 -7 -90 -8 -19 -2 -35 -4 -35 -5 0 -1 -16 -3 -35 -5 -19 -1 -57 -6 -85
-10 -27 -4 -63 -8 -78 -10 -15 -2 -47 -7 -70 -11 -23 -3 -55 -8 -72 -9 -16 -2
-30 -4 -30 -5 0 -1 -9 -3 -20 -5 -11 -1 -38 -6 -60 -10 -22 -3 -53 -8 -70 -11
-16 -3 -61 -11 -100 -19 -38 -8 -85 -17 -104 -20 -19 -3 -37 -7 -40 -9 -3 -2
-22 -7 -41 -10 -44 -7 -59 -10 -145 -31 -38 -9 -78 -18 -88 -20 -9 -2 -45 -11
-80 -20 -34 -9 -73 -19 -87 -22 -36 -7 -43 -9 -61 -17 -9 -4 -29 -9 -45 -11
-16 -2 -30 -4 -31 -6 -2 -1 -6 -2 -10 -4 -5 -1 -15 -4 -23 -8 -8 -3 -35 -12
-60 -18 -25 -7 -47 -13 -50 -14 -3 -1 -25 -8 -50 -15 -25 -8 -52 -15 -60 -15
-9 -1 -27 -8 -40 -15 -14 -7 -27 -13 -30 -13 -14 1 -223 -70 -238 -80 -7 -6
-15 -7 -19 -4 -3 4 -11 3 -17 -2 -6 -4 -35 -16 -63 -25 -29 -10 -55 -22 -59
-27 -3 -5 -10 -7 -15 -3 -5 3 -15 2 -22 -3 -7 -5 -34 -18 -62 -27 -27 -10 -69
-26 -92 -37 -24 -10 -45 -19 -48 -19 -4 0 -25 -8 -48 -19 -40 -17 -76 -32 -87
-36 -16 -5 -141 -60 -195 -86 -27 -12 -52 -23 -55 -24 -3 0 -49 -22 -103 -48
-54 -26 -102 -47 -107 -47 -4 0 -10 -3 -12 -7 -3 -9 -161 -87 -167 -83 -2 1
-7 -2 -10 -7 -3 -4 -33 -22 -66 -40 -176 -92 -269 -145 -276 -156 -3 -5 -10
-9 -15 -9 -5 0 -44 -21 -87 -47 -43 -25 -85 -50 -95 -56 -59 -34 -208 -131
-210 -137 -2 -4 -8 -8 -13 -8 -9 0 -128 -78 -139 -90 -3 -3 -23 -17 -45 -30
-22 -13 -44 -28 -50 -32 -5 -4 -93 -69 -195 -144 -102 -75 -190 -142 -196
-150 -6 -8 -16 -14 -22 -14 -6 0 -12 -3 -14 -8 -1 -4 -34 -32 -73 -62 -276
-218 -627 -544 -911 -846 -131 -139 -143 -152 -219 -240 -135 -156 -151 -175
-230 -274 -33 -41 -62 -77 -65 -80 -11 -10 -126 -163 -143 -191 -11 -16 -23
-29 -28 -29 -5 0 -9 -7 -9 -15 0 -8 -4 -15 -8 -15 -4 0 -21 -22 -37 -50 -17
-27 -33 -50 -37 -50 -4 0 -15 -14 -24 -32 -9 -18 -22 -37 -28 -43 -6 -6 -45
-63 -86 -126 -41 -63 -78 -115 -82 -117 -5 -2 -8 -10 -8 -18 0 -8 -4 -14 -10
-14 -5 0 -10 -5 -10 -11 0 -6 -13 -29 -29 -52 -34 -51 -241 -395 -241 -402 0
-3 -11 -23 -25 -45 -14 -22 -22 -40 -18 -40 5 0 3 -4 -3 -8 -6 -4 -30 -45 -55
-92 -24 -47 -48 -88 -52 -91 -5 -3 -8 -9 -8 -13 1 -3 -34 -79 -78 -169 -86
-177 -95 -198 -169 -364 -28 -62 -48 -113 -45 -113 3 0 1 -6 -5 -12 -5 -7 -21
-42 -35 -78 -14 -36 -31 -78 -38 -95 -7 -16 -13 -32 -14 -35 -1 -3 -7 -18 -13
-33 -7 -16 -12 -34 -12 -41 0 -6 -4 -16 -9 -21 -12 -15 -168 -473 -164 -485 1
-3 -3 -11 -9 -17 -6 -7 -8 -13 -4 -13 4 0 0 -13 -9 -30 -8 -16 -15 -32 -15
-35 0 -3 0 -6 -1 -7 0 -2 -2 -12 -4 -23 -2 -11 -13 -49 -24 -85 -11 -36 -21
-73 -21 -82 0 -10 -4 -18 -8 -18 -5 0 -8 -10 -7 -22 1 -13 -1 -27 -5 -33 -7
-9 -86 -332 -97 -395 -10 -58 -11 -65 -13 -65 -1 0 -3 -11 -6 -25 -2 -14 -9
-47 -14 -75 -19 -94 -40 -205 -46 -245 -2 -14 -5 -34 -7 -45 -3 -11 -8 -45
-12 -75 -3 -30 -9 -68 -12 -85 -3 -16 -7 -43 -9 -60 -2 -16 -5 -46 -8 -65 -17
-122 -37 -317 -50 -489 -13 -174 -18 -237 -18 -276 -1 -22 -6 -43 -12 -47 -8
-5 -7 -8 1 -8 7 0 10 -9 7 -22 -10 -42 -10 -63 -2 -80 5 -10 4 -19 -2 -23 -14
-9 -12 -45 3 -45 8 0 9 -3 1 -8 -16 -11 -17 -231 -1 -250 9 -12 9 -14 0 -8
-10 5 -12 -7 -11 -49 1 -31 6 -59 10 -61 5 -3 5 -11 1 -17 -10 -17 -11 -47 -1
-53 5 -3 4 -12 -3 -20 -7 -9 -8 -14 -1 -14 10 0 10 -7 2 -45 -1 -5 -1 -12 0
-15 6 -15 9 -53 14 -157 3 -64 8 -118 11 -121 3 -3 0 -11 -6 -19 -8 -9 -8 -13
0 -13 6 0 10 -10 10 -22 0 -13 2 -57 5 -98 4 -68 7 -99 21 -210 3 -19 7 -62
11 -95 3 -33 8 -71 10 -85 3 -14 7 -45 10 -70 2 -25 7 -56 10 -70 3 -14 7 -41
9 -60 2 -19 6 -46 9 -60 4 -14 8 -41 11 -60 4 -30 16 -104 20 -120 5 -21 19
-98 20 -110 1 -8 5 -26 8 -40 4 -14 8 -39 11 -56 2 -17 9 -41 15 -53 8 -13 8
-21 2 -21 -7 0 -7 -8 -1 -22 5 -13 28 -99 51 -193 22 -93 43 -179 46 -190 2
-11 5 -26 5 -32 1 -7 6 -13 11 -13 6 0 8 -3 5 -6 -4 -3 3 -38 14 -77 11 -40
21 -76 22 -82 2 -5 5 -17 8 -25 3 -8 11 -35 18 -60 7 -25 16 -54 21 -65 13
-33 69 -220 69 -233 0 -7 4 -12 9 -12 5 0 12 -17 16 -37 4 -21 13 -51 20 -68
7 -16 18 -46 25 -65 7 -19 16 -44 20 -55 4 -11 22 -58 40 -105 17 -47 38 -97
46 -113 9 -15 13 -27 9 -27 -3 0 4 -18 15 -40 11 -21 20 -46 20 -55 0 -8 5
-15 10 -15 6 0 10 -8 10 -18 0 -10 3 -22 8 -26 4 -4 7 -11 8 -14 1 -6 9 -26
61 -142 9 -19 17 -37 17 -40 2 -6 88 -187 114 -239 9 -19 16 -39 15 -43 -2 -4
1 -8 6 -8 5 0 19 -24 31 -53 12 -28 29 -59 37 -69 8 -9 15 -22 17 -30 1 -7 11
-29 22 -48 11 -19 29 -53 41 -75 12 -22 31 -58 43 -80 13 -22 34 -60 48 -85
13 -25 30 -52 38 -60 7 -8 12 -17 11 -20 -1 -5 11 -24 60 -102 12 -21 23 -42
23 -48 0 -5 5 -10 10 -10 6 0 10 -7 10 -15 0 -8 5 -15 10 -15 6 0 10 -5 10
-11 0 -6 13 -30 30 -54 16 -24 30 -48 30 -54 0 -6 3 -11 8 -11 4 0 23 -27 42
-60 19 -33 38 -60 43 -60 4 0 7 -6 8 -12 0 -7 16 -33 35 -58 19 -25 37 -53 40
-63 4 -9 10 -17 15 -17 5 0 9 -4 9 -10 0 -5 6 -18 14 -27 8 -10 66 -88 128
-173 63 -85 121 -164 130 -175 10 -11 49 -60 88 -110 39 -49 79 -99 88 -110 9
-11 43 -51 76 -90 61 -74 96 -113 229 -260 102 -113 497 -506 603 -601 76 -69
229 -201 249 -217 21 -16 61 -50 90 -75 17 -15 60 -49 95 -77 36 -27 67 -52
70 -55 8 -10 290 -220 295 -220 3 0 13 -7 22 -15 35 -28 231 -165 237 -165 4
0 16 -9 28 -20 12 -11 28 -20 35 -20 7 0 13 -3 13 -8 0 -4 20 -18 45 -32 25
-14 45 -28 45 -32 0 -5 4 -8 9 -8 5 0 63 -34 129 -75 66 -41 138 -84 159 -96
21 -12 72 -41 113 -64 41 -23 93 -52 115 -65 46 -26 417 -217 425 -218 3 0 48
-20 100 -45 52 -24 129 -59 170 -76 41 -18 93 -41 115 -51 22 -10 72 -30 110
-45 39 -15 75 -30 80 -33 6 -4 15 -7 20 -8 6 -1 53 -19 105 -39 52 -20 140
-52 195 -71 55 -19 107 -37 115 -41 8 -3 24 -8 35 -10 11 -1 29 -7 40 -13 25
-11 181 -60 214 -66 13 -3 32 -9 41 -14 10 -5 20 -6 24 -3 3 3 6 2 6 -3 0 -5
8 -10 18 -11 10 -1 58 -13 107 -27 50 -14 99 -27 110 -29 11 -2 27 -7 35 -10
8 -3 26 -8 40 -11 14 -2 57 -12 95 -22 39 -9 78 -17 88 -17 9 -1 17 -6 17 -11
0 -5 3 -7 6 -4 3 3 31 0 63 -8 70 -16 89 -20 216 -44 109 -21 130 -25 220 -40
33 -6 74 -12 90 -15 17 -3 53 -8 80 -11 28 -3 53 -8 56 -9 3 -2 37 -7 75 -11
38 -3 78 -8 89 -10 11 -3 38 -6 60 -9 22 -2 67 -7 100 -11 33 -3 78 -8 100 -9
22 -2 40 -4 40 -5 0 0 32 -3 70 -5 39 -2 99 -6 135 -9 216 -18 590 -28 604
-17 6 5 119 11 251 14 132 4 272 8 310 11 92 7 199 16 255 21 25 3 72 7 105
10 94 9 129 13 248 29 62 9 132 18 157 21 25 3 56 7 70 10 37 7 92 16 115 20
44 6 372 69 415 80 13 3 130 29 180 40 8 2 60 15 115 30 55 14 109 28 120 30
30 6 156 42 270 78 55 17 105 32 110 33 27 5 360 120 463 160 64 25 122 47
127 48 11 3 4 0 230 96 94 40 175 75 180 79 6 4 26 14 45 21 29 11 155 73 465
228 17 8 42 24 58 34 15 11 27 16 27 12 0 -3 6 -2 13 4 6 5 35 22 62 37 178
98 508 303 720 449 122 83 394 282 405 295 3 3 30 25 60 47 48 35 285 230 316
259 6 5 46 42 90 80 149 132 189 170 389 370 182 182 277 281 360 376 136 155
246 286 368 439 164 204 456 625 604 870 221 365 416 742 575 1109 27 63 55
129 63 145 40 90 142 367 204 556 100 299 101 303 106 325 3 11 16 61 30 110
27 95 74 270 80 295 28 124 78 350 81 368 10 56 12 69 18 92 3 14 8 41 10 60
3 19 10 58 15 85 5 28 12 70 16 95 3 25 8 52 10 60 3 8 7 38 10 65 3 28 7 59
9 71 2 12 7 45 10 75 4 30 9 70 11 89 7 56 13 110 21 185 10 100 11 119 19
230 4 55 8 120 11 145 9 113 14 514 6 519 -5 3 -12 119 -16 256 -4 138 -9 263
-11 278 -2 16 -6 72 -10 125 -4 53 -8 113 -10 132 -1 19 -6 73 -10 120 -3 47
-8 92 -11 101 -3 9 -7 39 -9 65 -15 153 -70 498 -110 691 -13 65 -26 132 -29
148 -6 35 -42 183 -56 235 -12 42 -79 297 -85 323 -14 62 -171 546 -194 602
-9 21 -19 47 -72 185 -17 47 -38 99 -45 115 -7 17 -31 74 -53 128 -308 749
-858 1651 -1375 2258 -17 20 -38 44 -47 55 -168 207 -506 560 -754 789 -60 55
-116 107 -124 115 -9 9 -66 58 -126 110 -61 51 -115 99 -122 104 -7 6 -25 21
-40 33 -15 12 -77 62 -138 110 -60 48 -195 150 -300 225 -104 76 -195 142
-202 148 -7 5 -15 10 -18 10 -6 0 -124 79 -135 90 -3 3 -14 10 -25 17 -58 36
-125 77 -165 103 -25 17 -56 35 -70 42 -14 6 -35 21 -48 32 -13 12 -24 19 -25
17 -1 -3 -13 2 -27 11 -38 24 -170 99 -220 126 -142 76 -196 106 -205 113 -5
5 -17 9 -26 9 -10 0 -19 3 -21 8 -4 9 -147 80 -422 206 -43 20 -89 39 -102 42
-13 3 -24 10 -24 15 0 5 -5 9 -12 9 -9 0 -191 71 -283 109 -11 5 -36 14 -55
21 -19 7 -44 16 -55 21 -53 23 -155 57 -155 52 0 -3 -6 -1 -12 4 -11 9 -79 35
-98 38 -7 1 -141 45 -160 52 -8 3 -21 7 -28 9 -6 1 -50 14 -97 29 -46 14 -92
28 -102 30 -19 4 -127 34 -153 42 -8 2 -16 4 -17 4 -2 0 -17 5 -35 10 -18 6
-42 12 -53 14 -25 6 -37 9 -165 40 -58 14 -118 27 -135 30 -16 3 -46 10 -65
15 -46 11 -109 23 -137 24 -13 1 -23 4 -23 7 0 3 -6 6 -12 6 -7 0 -30 3 -50 7
-21 3 -54 9 -74 12 -20 3 -46 8 -58 10 -11 3 -37 7 -56 10 -19 2 -46 7 -60 10
-14 3 -44 7 -68 10 -24 2 -56 6 -70 10 -15 3 -40 7 -57 9 -16 2 -50 6 -75 9
-42 5 -104 12 -190 21 -19 2 -62 6 -95 10 -33 4 -85 8 -115 11 -30 2 -89 6
-130 9 -77 6 -1036 15 -1042 10z m852 -2519 c47 -3 114 -8 150 -11 36 -3 90
-8 120 -10 30 -3 69 -7 85 -10 17 -2 53 -7 80 -10 59 -6 109 -13 150 -21 17
-3 41 -7 55 -8 25 -4 187 -32 225 -40 102 -21 183 -39 198 -42 9 -2 25 -6 35
-8 44 -10 183 -46 237 -61 33 -10 72 -20 88 -22 15 -3 30 -9 33 -14 3 -5 16
-9 30 -9 13 0 32 -4 42 -9 9 -5 49 -19 87 -31 706 -222 1459 -629 2058 -1113
214 -173 315 -264 532 -482 422 -422 745 -844 1048 -1370 66 -114 250 -479
291 -575 122 -288 147 -353 201 -515 20 -60 39 -117 43 -125 3 -8 6 -17 7 -20
0 -3 6 -21 12 -40 27 -88 54 -180 58 -199 2 -12 6 -25 9 -29 5 -8 14 -48 21
-87 2 -11 4 -21 5 -22 3 -3 4 -9 14 -48 21 -88 27 -112 30 -135 3 -14 5 -25 7
-25 1 0 3 -9 5 -20 2 -17 14 -79 38 -194 3 -12 8 -43 11 -68 2 -24 7 -48 9
-51 2 -4 6 -29 10 -57 3 -27 8 -61 10 -75 3 -14 7 -47 11 -75 3 -27 8 -68 11
-90 7 -61 13 -112 20 -200 3 -44 8 -102 11 -130 6 -72 11 -778 5 -789 -4 -8
-14 -138 -16 -228 -1 -21 -3 -38 -6 -38 -3 0 -5 -15 -6 -33 -1 -35 -13 -156
-19 -189 -2 -11 -7 -40 -9 -64 -5 -41 -21 -141 -31 -194 -2 -14 -11 -61 -19
-105 -8 -44 -17 -91 -21 -105 -3 -14 -8 -36 -10 -50 -2 -14 -6 -34 -9 -45 -2
-11 -5 -28 -5 -38 -1 -11 -6 -15 -13 -11 -7 4 -8 3 -4 -4 4 -6 -3 -51 -14 -99
-12 -49 -23 -95 -25 -103 -2 -8 -8 -27 -14 -42 -6 -16 -8 -28 -5 -28 3 0 2 -6
-3 -12 -4 -7 -9 -19 -10 -25 -3 -15 -5 -21 -22 -83 -7 -25 -15 -52 -18 -60 -4
-8 -7 -18 -8 -22 -2 -5 -3 -9 -5 -10 -1 -2 -3 -11 -6 -20 -6 -28 -10 -42 -17
-58 -3 -8 -11 -33 -17 -55 -7 -22 -18 -53 -25 -70 -7 -16 -23 -59 -35 -95 -20
-62 -29 -84 -60 -155 -8 -16 -14 -32 -15 -35 -1 -3 -5 -17 -9 -32 -5 -16 -11
-28 -15 -28 -4 0 -8 -6 -8 -12 0 -7 -10 -34 -21 -60 -12 -26 -22 -49 -22 -51
0 -2 -19 -44 -42 -93 -23 -49 -41 -92 -40 -96 1 -5 -2 -8 -8 -8 -5 0 -10 -9
-10 -19 0 -11 -3 -21 -7 -23 -9 -3 -66 -121 -63 -127 1 -2 -2 -7 -7 -10 -7 -5
-31 -47 -71 -126 -33 -66 -190 -327 -261 -435 -76 -115 -228 -331 -240 -340
-3 -3 -22 -27 -40 -55 -19 -27 -38 -52 -42 -55 -4 -3 -24 -28 -45 -56 -22 -28
-57 -72 -79 -97 -22 -25 -47 -54 -55 -65 -69 -89 -454 -485 -580 -597 -69 -61
-183 -160 -205 -178 -11 -9 -51 -41 -90 -72 -38 -31 -79 -64 -90 -73 -23 -19
-78 -60 -180 -134 -83 -61 -366 -247 -415 -274 -19 -10 -39 -22 -45 -27 -30
-22 -85 -56 -85 -52 0 3 -25 -11 -55 -30 -30 -19 -57 -35 -60 -35 -4 0 -21
-10 -38 -22 -18 -13 -34 -22 -37 -22 -7 2 -54 -19 -60 -27 -8 -10 -344 -172
-357 -172 -7 0 -13 -4 -13 -9 0 -4 -7 -8 -15 -8 -8 0 -30 -9 -50 -20 -19 -11
-35 -18 -35 -15 0 2 -28 -8 -62 -24 -35 -15 -115 -47 -178 -70 -63 -24 -122
-45 -130 -48 -8 -4 -18 -7 -22 -8 -5 -2 -9 -3 -10 -5 -2 -1 -10 -3 -18 -5 -8
-2 -41 -13 -72 -24 -32 -11 -58 -17 -58 -13 0 4 -4 2 -8 -4 -4 -6 -27 -16 -52
-23 -25 -6 -49 -13 -55 -15 -5 -1 -37 -10 -70 -20 -33 -10 -69 -20 -80 -23
-40 -9 -50 -12 -50 -14 0 -1 -9 -3 -20 -5 -26 -4 -60 -12 -60 -14 0 -2 -17 -6
-55 -14 -29 -6 -153 -34 -190 -43 -42 -10 -44 -11 -80 -17 -19 -3 -46 -8 -60
-11 -14 -3 -41 -8 -60 -11 -72 -11 -80 -13 -91 -20 -8 -5 -9 -3 -4 5 6 10 3
11 -11 3 -17 -9 -80 -20 -144 -27 -51 -5 -136 -16 -160 -20 -14 -3 -59 -7
-100 -11 -41 -3 -93 -8 -115 -10 -178 -17 -684 -22 -895 -9 -197 11 -414 33
-525 51 -16 3 -43 7 -60 9 -16 2 -46 7 -65 10 -19 3 -53 8 -75 11 -22 2 -48 7
-57 10 -9 3 -25 6 -35 8 -10 2 -36 7 -58 11 -22 4 -49 9 -60 10 -17 3 -166 38
-215 51 -8 2 -51 12 -95 23 -44 11 -95 24 -113 30 -18 5 -36 11 -40 12 -4 1
-11 3 -17 4 -70 19 -329 101 -360 114 -11 5 -42 17 -70 26 -86 30 -228 86
-275 108 -25 11 -49 22 -55 23 -5 1 -32 13 -60 25 -27 13 -52 23 -55 24 -7 0
-429 211 -460 230 -14 8 -95 56 -180 106 -223 132 -607 393 -618 421 -2 4 -10
8 -17 8 -7 0 -15 4 -17 8 -1 4 -23 23 -48 42 -25 19 -47 37 -50 40 -3 3 -17
15 -32 26 -34 27 -117 97 -232 199 -102 88 -438 424 -503 501 -56 67 -79 93
-117 134 -17 19 -47 55 -66 80 -34 44 -78 98 -191 237 -30 37 -71 91 -90 118
-19 28 -37 52 -40 55 -3 3 -35 50 -71 105 -178 275 -192 298 -180 310 4 5 2 5
-4 2 -6 -3 -20 10 -31 31 -12 20 -31 55 -43 77 -12 22 -33 59 -47 83 -14 23
-21 42 -16 42 4 0 3 4 -3 8 -7 4 -35 54 -64 112 -29 58 -68 136 -86 173 -19
38 -32 72 -29 78 4 5 2 9 -3 9 -14 0 -63 120 -55 133 3 7 2 9 -2 5 -7 -7 -65
113 -65 134 0 4 -11 31 -24 60 -28 63 -106 281 -106 297 0 6 -4 19 -10 29 -5
9 -17 42 -26 72 -28 98 -56 195 -60 210 -2 8 -15 57 -29 108 -14 51 -23 97
-20 103 4 5 2 9 -2 9 -8 0 -22 56 -40 150 -2 14 -9 45 -15 70 -15 67 -22 111
-23 147 0 17 -3 29 -7 26 -7 -4 -9 12 -12 94 -1 17 -4 29 -8 26 -5 -2 -9 11
-9 29 -1 18 -3 42 -4 53 -11 74 -17 114 -20 145 -3 19 -6 44 -9 55 -2 11 2 26
8 34 8 11 8 13 -1 7 -10 -5 -13 3 -14 31 -1 21 -3 52 -4 68 -10 108 -17 215
-19 313 -2 62 -6 115 -9 119 -4 3 -2 14 4 24 5 11 6 19 2 19 -10 0 -8 174 2
191 5 7 4 10 -1 6 -5 -3 -9 25 -9 64 0 38 2 69 5 69 3 0 5 26 6 58 0 82 20
373 29 421 2 14 7 53 10 87 3 33 8 72 10 85 3 13 8 47 11 74 8 64 10 73 18
115 3 19 8 46 10 60 5 29 17 97 23 125 2 11 10 52 18 90 22 109 24 115 29 133
3 9 7 28 10 42 2 14 14 61 26 105 12 44 23 88 25 99 3 10 12 44 21 75 10 31
18 62 20 68 1 7 28 91 59 188 35 106 61 172 68 168 6 -3 7 -1 3 6 -6 10 17 88
44 146 5 11 19 45 31 75 12 30 31 75 42 100 11 25 22 50 23 55 4 24 163 352
232 480 129 240 295 506 456 730 45 61 141 191 146 195 3 3 39 48 81 100 42
53 83 102 90 110 8 8 29 33 48 55 200 237 602 626 830 803 18 14 123 94 161
123 185 140 498 349 650 434 25 14 61 34 80 46 251 145 701 352 990 454 152
53 458 150 508 160 9 2 64 15 122 30 58 15 114 29 125 31 20 4 100 20 145 30
136 28 363 65 485 79 28 3 61 8 75 10 14 2 61 7 105 11 44 3 87 8 96 9 9 2 79
6 155 10 76 4 140 8 141 9 5 5 554 -2 633 -8z"/>
<path d="M9308 14325 c-2 -2 -21 -5 -43 -8 -258 -36 -520 -192 -683 -408 -23
-31 -80 -125 -125 -210 -46 -85 -97 -179 -114 -209 -16 -30 -46 -85 -66 -122
-21 -38 -53 -98 -73 -135 -21 -38 -48 -88 -62 -113 -13 -25 -47 -88 -75 -140
-27 -52 -76 -142 -107 -200 -59 -106 -83 -151 -160 -295 -24 -44 -63 -115 -87
-157 -23 -43 -43 -79 -43 -82 0 -2 -17 -35 -38 -73 -22 -37 -55 -97 -74 -133
-19 -36 -64 -119 -100 -185 -36 -66 -87 -160 -113 -210 -26 -49 -51 -94 -55
-100 -4 -5 -33 -59 -65 -120 -32 -60 -61 -114 -65 -120 -4 -5 -31 -55 -60
-110 -30 -55 -85 -159 -124 -230 -39 -72 -78 -144 -86 -160 -8 -17 -17 -32
-20 -35 -3 -3 -18 -30 -34 -60 -16 -30 -58 -109 -94 -175 -35 -66 -80 -149
-100 -185 -19 -36 -45 -83 -57 -105 -12 -22 -42 -76 -65 -120 -23 -44 -55
-102 -70 -130 -15 -27 -42 -76 -59 -107 -17 -32 -44 -82 -60 -110 -15 -29 -48
-89 -71 -133 -24 -44 -77 -140 -117 -214 -40 -74 -73 -137 -73 -141 0 -4 -7
-13 -15 -20 -8 -6 -14 -15 -12 -18 1 -4 -15 -36 -35 -72 -44 -79 -94 -171
-144 -265 -20 -38 -40 -74 -44 -80 -4 -5 -33 -59 -65 -120 -32 -60 -66 -123
-76 -140 -10 -16 -29 -52 -44 -80 -14 -27 -39 -75 -56 -105 -17 -30 -52 -95
-79 -145 -26 -49 -59 -111 -74 -137 l-26 -47 58 -34 c137 -83 402 -200 502
-222 3 -1 25 -7 50 -14 203 -58 384 -80 630 -76 107 2 206 6 220 9 14 2 43 7
65 10 120 18 238 46 375 89 36 12 67 22 70 22 5 2 43 17 105 43 97 40 273 136
377 204 132 87 222 159 333 267 212 206 333 368 494 666 50 94 97 179 103 189
5 11 22 40 35 65 14 25 33 60 43 76 10 17 35 64 57 105 82 154 138 257 180
334 24 43 43 82 43 86 0 5 3 10 8 12 4 2 19 26 33 53 36 71 116 218 161 298
21 38 38 70 38 72 0 2 9 20 21 39 l21 36 40 -78 c22 -42 48 -90 58 -107 19
-32 58 -104 122 -225 22 -41 53 -97 68 -125 65 -119 90 -165 130 -240 24 -44
64 -118 90 -165 26 -47 71 -130 100 -185 29 -55 61 -113 70 -130 29 -52 76
-138 110 -200 136 -250 370 -529 595 -710 96 -77 303 -213 400 -262 116 -59
343 -152 385 -157 8 -1 31 -7 50 -13 19 -7 46 -15 60 -17 14 -3 48 -11 75 -17
28 -6 64 -13 80 -15 17 -3 41 -7 55 -10 169 -28 529 -25 690 6 30 6 69 13 85
16 195 34 541 169 707 276 l47 31 -41 76 c-22 42 -51 94 -63 116 -12 22 -43
81 -70 130 -26 50 -56 104 -65 120 -10 17 -50 91 -90 165 -40 74 -86 160 -103
190 -16 30 -42 78 -57 105 -15 28 -41 75 -57 105 -17 30 -48 87 -68 125 -21
39 -67 124 -104 190 -36 66 -66 122 -66 125 0 3 -8 16 -16 30 -14 22 -182 331
-272 500 -16 30 -43 80 -60 110 -16 30 -46 84 -65 120 -19 36 -45 83 -57 105
-12 22 -42 76 -65 120 -23 44 -53 98 -65 120 -19 33 -384 708 -507 935 -20 36
-47 85 -60 110 -14 25 -45 81 -68 125 -24 44 -125 231 -225 415 -100 184 -203
376 -230 425 -26 50 -68 125 -92 167 -23 43 -43 79 -43 81 0 3 -20 41 -45 85
-43 79 -208 384 -287 532 -23 41 -48 89 -58 105 -10 17 -34 62 -55 100 -116
216 -114 213 -220 320 -115 115 -281 220 -405 256 -25 7 -49 16 -55 20 -5 4
-30 10 -55 14 -25 4 -54 10 -65 12 -22 6 -272 13 -277 8z"/>
<path d="M12575 14309 c-498 -102 -868 -498 -961 -1029 -13 -75 -13 -387 0
-440 3 -14 8 -35 10 -47 87 -433 403 -799 804 -933 135 -44 230 -58 382 -56
74 2 153 8 175 14 22 6 51 13 65 15 169 30 421 176 565 328 166 176 298 428
330 633 4 21 9 48 12 60 3 11 8 86 10 166 6 155 -5 266 -38 385 -11 39 -21 75
-22 82 -2 7 -6 16 -10 19 -4 4 -7 13 -7 20 0 24 -77 178 -126 255 -174 268
-445 459 -749 526 -107 23 -330 25 -440 2z"/>
<path d="M14265 12833 c1 -10 0 -22 -4 -28 -3 -5 -6 -18 -7 -27 -1 -10 -2 -19
-4 -20 -2 -4 -7 -27 -15 -73 -9 -52 -13 -70 -15 -70 -1 0 -4 -9 -6 -20 -3 -11
-6 -24 -8 -30 -2 -5 -7 -25 -11 -42 -4 -18 -12 -33 -17 -33 -5 0 -7 -4 -4 -9
3 -5 0 -24 -8 -42 -7 -19 -17 -43 -21 -54 -5 -11 -7 -23 -7 -27 1 -5 -3 -8 -9
-8 -5 0 -8 -4 -4 -9 3 -5 1 -12 -4 -15 -5 -3 -18 -24 -29 -45 -29 -55 -46 -85
-52 -91 -3 -3 -18 -25 -35 -50 -89 -135 -212 -271 -310 -345 -22 -16 -49 -38
-60 -48 -11 -10 -36 -28 -55 -40 -19 -11 -37 -23 -40 -27 -4 -4 -35 -21 -130
-71 -24 -13 -103 -46 -130 -55 -25 -8 -38 -11 -62 -17 -7 -1 -19 -6 -25 -10
-7 -5 -13 -6 -13 -3 0 2 -24 -2 -52 -10 -29 -8 -64 -17 -78 -20 -14 -3 -33 -7
-42 -10 -44 -13 -73 -16 -198 -19 -74 -2 -157 1 -185 6 -27 5 -59 11 -70 13
-11 2 -49 11 -85 20 -36 9 -74 17 -85 19 -11 1 -25 6 -31 9 -6 4 -25 10 -44
13 -18 3 -46 13 -62 21 -16 9 -31 14 -33 12 -2 -2 23 -52 56 -111 32 -59 59
-112 59 -117 0 -6 5 -10 12 -10 6 0 8 -3 5 -7 -4 -3 -3 -11 2 -17 6 -6 23 -36
39 -66 46 -88 94 -174 103 -186 5 -6 6 -14 2 -17 -3 -4 -1 -7 5 -7 7 0 12 -4
12 -8 0 -8 101 -199 168 -317 48 -85 192 -355 192 -360 0 -4 8 -19 18 -33 18
-25 45 -76 144 -262 22 -41 56 -104 76 -140 42 -74 82 -149 109 -200 10 -19
46 -86 80 -149 35 -62 63 -117 63 -122 0 -4 6 -14 13 -21 6 -7 26 -40 43 -73
29 -56 56 -107 134 -250 18 -33 46 -85 63 -115 120 -223 239 -386 408 -562 31
-32 54 -60 51 -63 -3 -3 -1 -5 5 -5 6 0 29 -17 51 -37 55 -52 79 -72 153 -130
82 -63 260 -179 271 -176 4 2 8 -1 8 -6 0 -5 18 -16 39 -24 22 -9 42 -21 45
-26 4 -5 20 -12 36 -16 17 -4 30 -11 30 -16 0 -5 3 -8 8 -7 4 1 25 -6 47 -16
59 -27 133 -55 190 -73 28 -8 59 -19 70 -23 24 -10 141 -41 170 -45 11 -2 47
-9 80 -15 33 -6 79 -13 101 -14 23 -2 46 -6 50 -9 5 -3 30 -4 56 -4 25 1 44
-1 42 -4 -4 -7 316 -3 356 4 14 3 50 8 80 12 99 12 295 54 340 72 19 8 20 8
55 18 61 17 210 78 217 89 4 6 8 7 8 3 0 -5 18 1 40 12 42 22 105 54 155 80
17 9 32 19 33 24 2 4 9 7 15 7 20 1 53 30 42 38 -9 6 -24 33 -78 137 -11 22
-29 52 -39 68 -11 15 -16 27 -12 27 3 0 1 7 -6 15 -7 9 -23 35 -35 58 -12 23
-39 71 -58 107 -20 36 -49 90 -65 120 -40 77 -105 196 -134 250 -14 25 -38 70
-54 100 -16 30 -32 57 -35 60 -8 7 -22 44 -21 53 1 4 -3 7 -8 7 -6 0 -10 6
-10 14 0 8 -3 16 -7 18 -5 2 -20 28 -36 58 -26 53 -78 149 -147 275 -18 33
-42 78 -53 100 -11 22 -23 42 -26 45 -4 3 -15 24 -25 48 -11 23 -23 42 -28 42
-5 0 -7 3 -5 8 2 4 -4 21 -14 37 -10 17 -29 50 -42 75 -13 25 -40 74 -59 110
-20 36 -46 85 -59 110 -13 25 -26 47 -29 50 -3 3 -16 28 -30 55 -13 28 -27 52
-30 55 -3 3 -17 28 -31 56 -29 56 -114 215 -162 304 -28 52 -46 85 -101 183
-25 45 -101 186 -149 277 -16 30 -46 87 -68 125 -21 39 -49 90 -61 115 -13 25
-25 47 -28 50 -3 3 -15 25 -28 50 -12 25 -36 69 -53 99 -16 30 -51 93 -76 140
-26 47 -58 106 -71 131 -24 43 -70 130 -123 230 -13 25 -26 47 -29 50 -3 3
-21 37 -40 75 -19 39 -37 72 -40 75 -3 3 -23 39 -45 80 -54 105 -58 113 -74
133 -8 9 -10 17 -6 17 4 0 2 8 -6 18 -8 9 -24 35 -36 57 -12 22 -40 74 -62
115 -22 41 -66 123 -98 183 -54 102 -75 128 -68 90z"/>
</g>
</svg>
