<?xml version="1.0" standalone="no"?>
<!DOCTYPE svg PUBLIC "-//W3C//DTD SVG 20010904//EN"
 "http://www.w3.org/TR/2001/REC-SVG-20010904/DTD/svg10.dtd">
<svg version="1.0" xmlns="http://www.w3.org/2000/svg"
 width="251.000000pt" height="251.000000pt" viewBox="0 0 251.000000 251.000000"
 preserveAspectRatio="xMidYMid meet">
<metadata>
Created by potrace 1.14, written by Peter Selinger 2001-2017
</metadata>
<g transform="translate(0.000000,251.000000) scale(0.100000,-0.100000)"
fill="#000000" stroke="none">
<path d="M1259 2320 c-64 -11 -216 -58 -263 -81 -22 -10 -46 -19 -53 -19 -7 0
-13 -4 -13 -10 0 -5 -5 -10 -10 -10 -16 0 -149 -92 -200 -138 l-45 -41 37 -1
c28 0 50 9 83 35 107 81 272 154 413 181 112 21 381 17 367 -6 -3 -5 4 -6 15
-3 22 6 132 -26 142 -41 4 -6 8 -8 8 -4 0 8 81 -21 90 -31 3 -3 22 -14 43 -24
21 -9 35 -22 32 -27 -3 -6 1 -7 9 -4 9 3 16 1 16 -5 0 -6 7 -11 15 -11 7 0 18
-8 24 -17 5 -10 13 -16 18 -14 4 2 13 -6 19 -18 6 -12 14 -22 18 -22 19 2 26
0 26 -9 0 -5 -8 -7 -17 -4 -15 5 -15 4 -3 -4 8 -6 18 -8 23 -5 13 8 98 -79 93
-94 -3 -7 0 -13 7 -13 23 0 38 -22 25 -37 -8 -10 -7 -12 4 -8 8 3 21 -1 28
-10 7 -8 9 -15 6 -15 -4 0 3 -10 14 -22 11 -12 18 -28 15 -36 -2 -7 0 -10 5
-7 15 9 78 -134 108 -245 22 -81 25 -116 25 -240 0 -83 -5 -164 -12 -190 -18
-68 -19 -74 -20 -88 -1 -7 -6 -10 -13 -6 -7 4 -8 3 -4 -5 11 -16 -23 -113 -36
-105 -6 4 -8 3 -5 -3 14 -23 -96 -209 -116 -196 -6 3 -7 1 -3 -6 7 -11 -107
-151 -124 -151 -4 0 -25 -16 -46 -35 -21 -19 -44 -35 -51 -35 -7 0 -13 -4 -13
-10 0 -18 -206 -110 -304 -135 -109 -28 -113 -28 -267 -28 -199 1 -380 59
-549 177 -48 34 -74 46 -101 46 l-37 0 37 -38 c20 -21 39 -36 43 -35 3 2 8 0
10 -4 5 -12 107 -77 169 -108 30 -15 57 -32 60 -37 3 -5 9 -9 13 -8 4 1 44 -9
89 -24 151 -47 315 -64 454 -47 316 39 597 209 768 465 56 84 135 249 135 282
0 8 4 13 9 9 5 -3 13 0 17 6 5 8 3 9 -6 4 -10 -6 -12 -2 -7 16 4 13 7 30 7 37
0 7 3 11 8 9 4 -3 9 18 11 46 7 87 4 360 -4 386 -6 18 -5 22 4 16 8 -4 6 4 -4
18 -9 15 -14 30 -11 36 3 5 2 11 -3 13 -5 1 -11 17 -13 33 -2 17 -5 32 -8 35
-3 3 -15 28 -26 57 -18 42 -19 50 -6 46 10 -4 13 -2 8 5 -4 7 -15 12 -24 12
-15 0 -15 2 -2 10 13 9 13 10 -1 10 -9 0 -26 22 -39 51 -14 28 -34 63 -47 77
-12 14 -20 28 -18 30 2 2 -8 15 -22 28 -14 13 -23 24 -19 24 3 0 -12 16 -34
36 -22 20 -37 41 -33 48 3 6 3 8 -2 4 -11 -11 -36 12 -28 26 3 6 3 8 -1 4 -4
-3 -42 19 -84 49 -98 71 -273 155 -382 183 -66 17 -120 23 -240 26 -85 1 -176
-1 -201 -6z"/>
<path d="M1876 2107 c3 -10 9 -15 12 -12 3 3 0 11 -7 18 -10 9 -11 8 -5 -6z"/>
<path d="M2066 1965 c4 -8 11 -15 16 -15 6 0 5 6 -2 15 -7 8 -14 15 -16 15 -2
0 -1 -7 2 -15z"/>
<path d="M2116 1905 c4 -8 8 -15 10 -15 2 0 4 7 4 15 0 8 -4 15 -10 15 -5 0
-7 -7 -4 -15z"/>
<path d="M117 1762 l-117 -3 0 -499 0 -500 90 0 90 0 1 48 c1 26 0 55 -1 66
-1 13 2 16 12 10 10 -6 11 -5 1 7 -16 20 -15 121 1 112 6 -3 5 0 -1 8 -17 18
-17 63 0 53 10 -6 10 -4 0 7 -7 7 -13 19 -13 27 0 8 5 10 13 6 9 -6 9 -5 0 7
-15 19 -14 81 1 72 7 -4 6 -1 -1 8 -7 8 -12 45 -11 84 0 39 -2 77 -5 85 -10
25 -3 155 8 158 6 1 24 -44 42 -100 129 -420 196 -644 196 -653 0 -6 35 -8 95
-5 l95 5 39 115 c21 63 41 122 45 130 3 8 7 21 9 28 1 8 6 21 10 30 4 9 9 26
11 37 2 11 8 22 13 23 6 2 8 7 5 12 -3 4 2 27 11 51 8 24 17 52 19 62 2 10 23
77 47 148 62 187 72 177 63 -58 -4 -104 -7 -190 -7 -193 0 -3 0 -92 1 -197 l1
-193 95 0 95 0 0 138 c0 97 4 142 13 151 10 11 10 13 0 7 -9 -5 -13 1 -13 19
0 18 4 24 13 19 10 -6 10 -4 0 7 -17 18 -17 83 0 73 10 -6 10 -4 0 7 -7 7 -13
31 -13 54 0 23 6 47 13 54 10 11 10 13 -1 7 -17 -10 -17 214 1 233 10 11 10
13 0 7 -9 -5 -13 2 -13 26 0 19 6 40 13 47 9 11 9 13 0 7 -10 -5 -13 11 -13
68 l0 74 -67 4 c-38 2 -101 1 -142 -2 l-74 -5 -41 -123 c-24 -69 -45 -120 -50
-115 -5 4 -6 3 -2 -4 10 -17 -25 -124 -37 -116 -6 3 -7 1 -3 -5 4 -6 -4 -45
-16 -87 -17 -54 -27 -74 -37 -70 -11 4 -11 2 -3 -8 9 -10 4 -37 -20 -108 -33
-99 -53 -135 -62 -108 -31 88 -34 104 -24 116 8 11 7 12 -7 6 -14 -5 -17 -3
-12 10 3 9 2 19 -3 22 -6 4 -10 11 -10 17 0 6 5 7 13 2 7 -5 6 -2 -3 6 -17 16
-45 84 -31 76 4 -3 8 1 8 9 0 8 -4 12 -8 9 -4 -2 -15 20 -25 48 -9 29 -19 59
-22 67 -3 9 -1 12 5 8 13 -8 11 19 -2 30 -4 4 -5 2 0 -6 6 -10 4 -12 -4 -7 -7
5 -10 14 -7 21 3 8 1 15 -4 17 -5 2 -11 12 -13 23 -2 11 -9 33 -16 50 -7 16
-10 37 -8 47 3 10 1 16 -4 12 -5 -3 -9 4 -9 16 0 13 4 19 12 14 7 -4 8 -3 4 5
-4 6 -11 9 -16 6 -11 -7 -33 62 -26 81 4 10 2 13 -6 8 -8 -5 -9 -2 -5 9 3 10
5 17 4 17 -1 0 -16 3 -32 8 -17 4 -83 6 -148 4z"/>
<path d="M1370 1762 l-45 -3 5 -367 c4 -264 9 -375 18 -396 7 -16 10 -36 8
-43 -3 -8 -1 -11 4 -8 6 3 10 1 10 -5 0 -7 13 -29 30 -50 16 -20 26 -40 22
-44 -4 -4 -2 -7 3 -6 22 5 29 -1 15 -11 -13 -9 -12 -10 3 -5 20 6 80 -27 69
-39 -4 -4 0 -6 8 -3 8 3 26 1 40 -5 36 -14 46 -16 131 -23 181 -16 341 50 408
167 15 27 30 46 34 43 3 -3 3 3 0 15 -3 12 -1 21 3 21 5 0 10 26 12 57 1 31 8
64 15 72 9 12 9 13 0 7 -10 -5 -13 12 -13 76 0 53 5 89 13 97 10 11 10 13 0 7
-9 -5 -13 1 -13 18 0 13 6 27 13 29 10 4 10 6 0 6 -8 1 -13 17 -13 44 0 24 6
49 13 56 10 11 10 13 0 7 -9 -5 -13 0 -13 16 0 13 6 30 13 37 8 9 8 12 0 7 -8
-4 -11 13 -12 61 0 38 0 89 0 116 l-1 47 -100 0 -100 0 -1 -327 c0 -181 -3
-341 -5 -356 -7 -44 -23 -79 -33 -73 -5 3 -8 -2 -7 -12 0 -9 -5 -16 -12 -14
-8 1 -11 -2 -7 -8 11 -18 -82 -50 -144 -50 -63 0 -124 17 -115 31 3 5 -2 6
-10 3 -10 -4 -24 9 -42 36 -23 34 -25 43 -13 51 13 8 6 13 -13 10 -5 0 -8 10
-8 23 0 13 -3 32 -7 42 -5 13 -3 15 8 9 11 -6 12 -5 2 6 -7 7 -13 25 -13 39 0
14 6 32 13 39 8 10 9 12 0 7 -17 -9 -17 212 0 233 10 12 9 13 -1 7 -11 -6 -13
11 -12 86 1 51 1 121 1 155 l-1 61 -57 4 c-32 1 -78 2 -103 0z"/>
<path d="M310 1691 c0 -6 4 -13 10 -16 6 -3 7 1 4 9 -7 18 -14 21 -14 7z"/>
<path d="M2436 1677 c3 -10 9 -15 12 -12 3 3 0 11 -7 18 -10 9 -11 8 -5 -6z"/>
<path d="M410 1370 c0 -5 5 -10 11 -10 5 0 7 5 4 10 -3 6 -8 10 -11 10 -2 0
-4 -4 -4 -10z"/>
<path d="M1375 891 c-3 -5 -2 -12 3 -15 5 -3 9 1 9 9 0 17 -3 19 -12 6z"/>
<path d="M1395 850 c3 -5 8 -10 11 -10 2 0 4 5 4 10 0 6 -5 10 -11 10 -5 0 -7
-4 -4 -10z"/>
<path d="M1478 793 c7 -3 16 -2 19 1 4 3 -2 6 -13 5 -11 0 -14 -3 -6 -6z"/>
<path d="M830 351 c0 -6 4 -13 10 -16 6 -3 7 1 4 9 -7 18 -14 21 -14 7z"/>
<path d="M886 312 c-3 -5 1 -9 9 -9 8 0 12 4 9 9 -3 4 -7 8 -9 8 -2 0 -6 -4
-9 -8z"/>
<path d="M930 290 c0 -5 5 -10 11 -10 5 0 7 5 4 10 -3 6 -8 10 -11 10 -2 0 -4
-4 -4 -10z"/>
</g>
</svg>
